<svg xmlns="http://www.w3.org/2000/svg" width="23.25" height="23.25" viewBox="0 0 23.25 23.25"><defs><style>.a{fill:#ed1c24;}</style></defs><path class="a" d="M12-20.625a11.269,11.269,0,0,1,5.812,1.57,11.747,11.747,0,0,1,4.242,4.242A11.269,11.269,0,0,1,23.625-9a11.269,11.269,0,0,1-1.57,5.812,11.747,11.747,0,0,1-4.242,4.242A11.269,11.269,0,0,1,12,2.625a11.269,11.269,0,0,1-5.812-1.57A11.747,11.747,0,0,1,1.945-3.187,11.269,11.269,0,0,1,.375-9a11.269,11.269,0,0,1,1.57-5.812,11.747,11.747,0,0,1,4.242-4.242A11.269,11.269,0,0,1,12-20.625Zm0,21A9.1,9.1,0,0,0,16.687-.891a9.454,9.454,0,0,0,3.422-3.422A9.1,9.1,0,0,0,21.375-9a9.1,9.1,0,0,0-1.266-4.687,9.454,9.454,0,0,0-3.422-3.422A9.1,9.1,0,0,0,12-18.375a9.1,9.1,0,0,0-4.687,1.266,9.454,9.454,0,0,0-3.422,3.422A9.1,9.1,0,0,0,2.625-9,9.1,9.1,0,0,0,3.891-4.312,9.454,9.454,0,0,0,7.312-.891,9.1,9.1,0,0,0,12,.375ZM13.875-9l2.906,2.906a.686.686,0,0,1,.141.422.507.507,0,0,1-.141.375L15.7-4.219a.507.507,0,0,1-.375.141.686.686,0,0,1-.422-.141L12-7.125,9.094-4.219a.686.686,0,0,1-.422.141A.507.507,0,0,1,8.3-4.219L7.219-5.3a.507.507,0,0,1-.141-.375.686.686,0,0,1,.141-.422L10.125-9,7.219-11.906a.686.686,0,0,1-.141-.422.507.507,0,0,1,.141-.375L8.3-13.781a.507.507,0,0,1,.375-.141.686.686,0,0,1,.422.141L12-10.875l2.906-2.906a.686.686,0,0,1,.422-.141.507.507,0,0,1,.375.141L16.781-12.7a.507.507,0,0,1,.141.375.686.686,0,0,1-.141.422Z" transform="translate(-0.375 20.625)"/></svg>