<svg xmlns="http://www.w3.org/2000/svg" width="40" height="40" viewBox="0 0 40 40"><defs><style>.a{fill:#00cc21;}.b{fill:none;}</style></defs><path class="a" d="M19.348-17.824a11.775,11.775,0,0,1,2.514,3.682,10.708,10.708,0,0,1,.889,4.291A10.784,10.784,0,0,1,21.2-4.215,11.547,11.547,0,0,1,17.037-.1a11.055,11.055,0,0,1-5.662,1.523A10.975,10.975,0,0,1,5.992.051L0,1.625l1.625-5.84A10.92,10.92,0,0,1,.1-9.852a10.92,10.92,0,0,1,1.523-5.637A11.407,11.407,0,0,1,5.738-19.6a10.92,10.92,0,0,1,5.637-1.523,10.978,10.978,0,0,1,4.291.863A11.833,11.833,0,0,1,19.348-17.824ZM11.375-.457A9.235,9.235,0,0,0,16.1-1.727a9.646,9.646,0,0,0,3.479-3.428,8.964,8.964,0,0,0,1.295-4.7,8.721,8.721,0,0,0-.762-3.555A10.044,10.044,0,0,0,18-16.478a9.409,9.409,0,0,0-3.047-2.057,9.192,9.192,0,0,0-3.58-.711,9.1,9.1,0,0,0-4.7,1.27A9.506,9.506,0,0,0,3.25-14.549a9.1,9.1,0,0,0-1.27,4.7A9.008,9.008,0,0,0,3.453-4.875l.2.355L2.691-1.066,6.246-1.98l.355.2A9.054,9.054,0,0,0,11.375-.457ZM16.5-7.516l.152.1a.9.9,0,0,1,.406.254,1.306,1.306,0,0,1,.025.508,2.631,2.631,0,0,1-.2.838,2.118,2.118,0,0,1-.812.863,2.567,2.567,0,0,1-1.092.482,4.651,4.651,0,0,1-1.371,0,10.546,10.546,0,0,1-2.031-.711A11.488,11.488,0,0,1,6.855-9.344l-.1-.1A5.13,5.13,0,0,1,5.637-12.34a3.211,3.211,0,0,1,.914-2.285l.051-.051a1.068,1.068,0,0,1,.762-.355h.609a.635.635,0,0,1,.33.076.7.7,0,0,1,.229.381l.863,2.082a.56.56,0,0,1,.051.508,3.5,3.5,0,0,1-.66.914,1.137,1.137,0,0,0-.254.33q-.051.127.1.279a6.568,6.568,0,0,0,1.676,2.082,13.011,13.011,0,0,0,2.133,1.27q.406.2.609-.051.66-.762.914-1.117.1-.2.254-.2a1.492,1.492,0,0,1,.355.051Q14.98-8.277,16.5-7.516Z" transform="translate(8 31)"/><rect class="b" width="40" height="40"/></svg>