<?xml version="1.0" encoding="utf-8"?>
<!-- Generator: Adobe Illustrator 24.1.2, SVG Export Plug-In . SVG Version: 6.00 Build 0)  -->
<svg version="1.1" xmlns="http://www.w3.org/2000/svg" xmlns:xlink="http://www.w3.org/1999/xlink" x="0px" y="0px"
	 viewBox="0 0 841.89 595.28" style="enable-background:new 0 0 841.89 595.28;" xml:space="preserve">
<style type="text/css">
	.st0{fill:#FFFFFF;}
</style>
<g id="Layer_1">
</g>
<g id="ò_x2021__xF8FF__x5F_1">
	<g>
		<path class="st0" d="M818.82,397.46c0,4.67-1.02,8.31-3.07,10.93c-2.04,2.62-4.9,3.92-8.55,3.92c-3.61,0-6.46-1.32-8.56-3.97
			s-3.15-6.24-3.15-10.77v-3.99c0-4.69,1.05-8.34,3.16-10.96c2.11-2.62,4.94-3.92,8.49-3.92c3.62,0,6.47,1.3,8.55,3.91
			c2.08,2.61,3.12,6.21,3.12,10.81V397.46z M822.05,393c-0.05-3.41-0.69-6.41-1.92-9c-1.22-2.59-2.96-4.59-5.21-6.01
			c-2.25-1.42-4.84-2.13-7.78-2.13c-2.94,0-5.54,0.72-7.8,2.16c-2.25,1.44-4,3.51-5.23,6.19s-1.85,5.77-1.85,9.25v3.94
			c0,5.42,1.37,9.73,4.12,12.92c2.74,3.19,6.35,4.79,10.81,4.79c2.96,0,5.56-0.72,7.82-2.15s3.99-3.48,5.21-6.14
			c1.22-2.66,1.82-5.74,1.82-9.26V393z M776.99,366.99c0,0.98-0.29,1.76-0.85,2.34c-0.57,0.58-1.26,0.86-2.06,0.86
			c-0.72,0-1.34-0.15-1.88-0.44s-1.06-0.63-1.59-1c-0.53-0.37-1.08-0.7-1.68-0.99c-0.6-0.3-1.31-0.45-2.15-0.45
			c-1.51,0-2.74,0.52-3.69,1.57c-0.96,1.05-1.43,2.37-1.43,3.97l2.36,0.08c0-0.98,0.28-1.74,0.83-2.28
			c0.55-0.54,1.24-0.82,2.06-0.82c1,0,2.13,0.48,3.4,1.45c1.27,0.96,2.57,1.44,3.9,1.44c1.43,0,2.65-0.51,3.63-1.53
			c0.99-1.02,1.49-2.36,1.49-4.04L776.99,366.99z M770.3,380.33l7.66,20.81h-15.33L770.3,380.33z M782.94,414.6h3.36l-14.46-38.21
			h-3.07l-14.46,38.21h3.38l3.94-10.73h17.35L782.94,414.6z M746.1,376.39h-3.23v38.21h3.23V376.39z M731.11,396.47h-13.49v2.73
			h10.26v9.87c-0.63,0.77-1.59,1.44-2.89,2.02c-2,0.87-4.38,1.31-7.17,1.31c-2.4,0-4.52-0.61-6.36-1.84
			c-1.85-1.22-3.27-2.95-4.25-5.19c-0.99-2.23-1.49-4.8-1.49-7.71v-4.52c0-4.62,1.04-8.2,3.12-10.74c2.08-2.54,4.91-3.81,8.48-3.81
			c2.92,0,5.29,0.73,7.1,2.17c1.81,1.45,2.95,3.58,3.43,6.39h3.23c-0.46-3.52-1.88-6.28-4.28-8.28c-2.4-2.01-5.57-3-9.5-3
			c-4.52,0-8.11,1.53-10.79,4.61c-2.68,3.07-4.02,7.26-4.02,12.56v4.83c0.02,3.4,0.67,6.41,1.94,9.03c1.28,2.62,3.08,4.65,5.41,6.09
			c2.33,1.43,4.99,2.15,7.98,2.15c2.96,0,5.63-0.44,8.02-1.34c2.39-0.89,4.14-2.13,5.26-3.73V396.47z M692.16,393.55h-17.87v-14.43
			h20.42v-2.73h-23.65v38.21h23.77v-2.73h-20.55v-15.59h17.87V393.55z M638.23,379.12h9.11c3.1,0,5.5,0.75,7.22,2.24
			s2.57,3.58,2.57,6.28c0,2.45-0.82,4.45-2.47,6c-1.64,1.54-3.82,2.31-6.53,2.31h-9.89V379.12z M658.57,414.6h3.44v-0.34
			l-9.55-16.27c2.42-0.71,4.34-2.01,5.77-3.88s2.15-4.02,2.15-6.47c0-3.55-1.15-6.31-3.44-8.28c-2.29-1.98-5.48-2.96-9.55-2.96
			h-12.41v38.21h3.25v-15.93h11.1L658.57,414.6z M611.57,393.55H593.7v-14.43h20.41v-2.73h-23.65v38.21h23.78v-2.73H593.7v-15.59
			h17.87V393.55z"/>
		<g>
			<g>
				<path class="st0" d="M143.1,268.75l1.58,9.04c0,1.2,0.47,4.12,1.4,8.76c0.93,4.64,1.4,7.68,1.4,9.11v0.14
					c0,2.15-0.81,3.54-2.44,4.16c-2.06,0-3.66-0.34-4.81-1c-1.15-0.67-1.72-1.96-1.72-3.88c0-4.16-0.72-10.21-2.15-18.16l-14.5-2.15
					c-0.91,3.25-1.6,6.82-2.08,10.69c-0.48,3.88-0.93,6.7-1.36,8.47c-0.86,3.64-2.46,5.46-4.81,5.46c-1.15,0-2.21-0.37-3.19-1.11
					c-0.98-0.74-1.47-1.69-1.47-2.83l0.36-1.29c6.6-25.5,11.51-50.33,14.71-74.49c0.1-0.67,0.24-2.63,0.43-5.89
					c0.48-7.18,1.39-11.74,2.73-13.71h4.95c1.34,0,2.51,0.31,3.52,0.93c1.01,0.62,1.51,1.56,1.51,2.8c0,7.46,0.99,18.54,2.98,33.23
					C142.1,251.72,143.1,262.29,143.1,268.75z M135.42,271.7c-0.29-1.43-0.43-3.94-0.43-7.5s-0.2-7.99-0.61-13.28
					s-0.99-11.43-1.76-18.44c-0.77-7.01-1.29-12.09-1.58-15.25c-4.45,24.64-7.32,42.01-8.61,52.1
					C124.1,270.43,128.43,271.22,135.42,271.7z"/>
			</g>
			<g>
				<path class="st0" d="M162.4,249.38l-0.14,15.93c0,12.97,0.93,23.18,2.8,30.64l-1.65,3.95h-4.09l-1.94-2.15
					c0.1-4.4,0.14-9.34,0.14-14.82c0-5.48-0.42-17.19-1.26-35.13c-0.84-17.94-1.26-31.34-1.26-40.19c0-4.64,1.63-6.96,4.88-6.96
					c5.12,0,9.43,1.34,12.92,4.02c3.49,2.68,5.24,6.51,5.24,11.48v10.33c0,2.82-0.53,5.39-1.58,7.71c-1.05,2.32-2.27,4.76-3.66,7.32
					c-1.39,2.56-2.15,3.98-2.3,4.27c0.53,2.39,1.46,7.08,2.8,14.07c2.87,15.26,6.05,26.24,9.55,32.94c1,1.91,1.51,3.41,1.51,4.48
					s-0.3,1.98-0.9,2.73c-0.6,0.74-1.4,1.11-2.4,1.11c-2.06,0-4.03-2.36-5.92-7.07c-1.89-4.71-3.41-9.94-4.56-15.68
					c-3.49-17.56-5.62-27.22-6.39-28.99H162.4z M162.98,206.1l-0.5,2.08c0,4.02,0.1,9.82,0.29,17.4c0.19,7.58,0.29,13.1,0.29,16.54
					c2.3-1.2,4.15-4.32,5.56-9.37c1.41-5.05,2.12-8.91,2.12-11.59c0-2.68-0.07-4.65-0.22-5.92c-0.14-1.27-0.45-2.67-0.93-4.2
					C168.62,207.89,166.42,206.24,162.98,206.1z"/>
			</g>
			<g>
				<path class="st0" d="M199.58,296.24l-0.29-11.27c0-0.05,0.07-1.72,0.22-5.02c-0.38-1.24-1.16-12.3-2.33-33.15
					c-1.17-20.86-1.81-33.61-1.9-38.25c-0.19,0-0.38,0-0.57,0c-7.94-0.14-11.91-1.6-11.91-4.38c0-0.91,0.53-1.66,1.58-2.26
					c1.05-0.6,2.08-0.9,3.09-0.9l19.95,1.36l2.37-0.07c3.06,0,4.59,1.17,4.59,3.52c0,1.2-0.5,2.17-1.51,2.91
					c-1.01,0.74-2.13,1.11-3.37,1.11l-6.75-1.01l-0.29,1.51c0,9.28,0.81,23.18,2.44,41.7c1.63,18.51,2.44,32.44,2.44,41.77
					c0,1.15-0.53,2.16-1.58,3.05c-1.05,0.89-2.2,1.33-3.44,1.33L199.58,296.24z"/>
			</g>
			<g>
				<path class="st0" d="M222.69,224.4l-0.79-12.42c0-6.94,2.06-10.41,6.17-10.41c2.63,0,6.22,0.61,10.77,1.83
					c4.55,1.22,6.82,2.79,6.82,4.7c0,2.01-1.44,3.54-4.31,4.59c-4.55-1.53-8.25-2.46-11.12-2.8c0.14,2.11,0.22,4.21,0.22,6.32
					l-0.65,21.1c0,0.1,0.14,0.86,0.43,2.3l5.24-0.22c4.74,0,7.1,1.34,7.1,4.02c0,1.05-0.43,1.97-1.29,2.76s-1.95,1.18-3.27,1.18
					c-1.32,0-2.74-0.1-4.27-0.29h-3.73c0.29,3.73,0.43,7.44,0.43,11.12l-0.65,26.62c0,5.5,0.1,8.25,0.29,8.25l10.84-0.36
					c3.73,0,5.6,1.2,5.6,3.59c0,1.48-0.65,2.56-1.94,3.23s-2.75,1-4.38,1h-12.42c-1.29,0-2.46-0.44-3.52-1.33
					c-1.05-0.88-1.6-1.95-1.65-3.19v-3.88l-0.93-24.83L222.69,224.4z"/>
			</g>
			<g>
				<path class="st0" d="M254.34,292.44l6.1,1.08c1.87,0,3.49-0.81,4.88-2.44c1.39-1.63,2.41-3.66,3.09-6.1
					c1.29-4.69,1.94-8.84,1.94-12.45c0-3.61-0.6-7.19-1.79-10.73c-1.2-3.54-2.67-6.83-4.41-9.87c-1.75-3.04-3.48-6.14-5.2-9.29
					c-4.12-7.46-6.17-14.78-6.17-21.96c0-4.4,0.74-8.3,2.22-11.7c2.77-6.32,6.46-9.47,11.05-9.47c1.72,0,3.36,0.55,4.92,1.65
					c1.55,1.1,2.33,2.3,2.33,3.59c0,2.25-1.2,3.37-3.59,3.37c-1.05,0-2.08-0.29-3.09-0.86c-3.11,0.14-5.22,3.61-6.32,10.41
					c-0.24,1.48-0.36,3.22-0.36,5.2c0,1.99,0.43,4.44,1.29,7.36c0.86,2.92,1.95,5.51,3.27,7.79c1.31,2.27,2.73,4.78,4.23,7.54
					c1.51,2.75,2.93,5.42,4.27,8c3.06,5.98,4.57,12.82,4.52,20.53c0.05,5.93-1.32,11.6-4.09,17.01c-1.34,2.68-3.24,4.87-5.71,6.57
					c-2.46,1.7-5.28,2.57-8.43,2.62v0.36c-4.02-0.58-6.22-2.46-6.6-5.67L254.34,292.44z"/>
			</g>
			<g>
				<path class="st0" d="M318.28,268.75l1.58,9.04c0,1.2,0.47,4.12,1.4,8.76c0.93,4.64,1.4,7.68,1.4,9.11v0.14
					c0,2.15-0.81,3.54-2.44,4.16c-2.06,0-3.66-0.34-4.81-1c-1.15-0.67-1.72-1.96-1.72-3.88c0-4.16-0.72-10.21-2.15-18.16l-14.5-2.15
					c-0.91,3.25-1.6,6.82-2.08,10.69c-0.48,3.88-0.93,6.7-1.36,8.47c-0.86,3.64-2.46,5.46-4.81,5.46c-1.15,0-2.21-0.37-3.19-1.11
					c-0.98-0.74-1.47-1.69-1.47-2.83l0.36-1.29c6.6-25.5,11.51-50.33,14.71-74.49c0.1-0.67,0.24-2.63,0.43-5.89
					c0.48-7.18,1.39-11.74,2.73-13.71h4.95c1.34,0,2.51,0.31,3.52,0.93c1.01,0.62,1.51,1.56,1.51,2.8c0,7.46,0.99,18.54,2.98,33.23
					C317.29,251.72,318.28,262.29,318.28,268.75z M315.77,182.06c0.14-0.72,0.48-1.39,1.01-2.01c0.53-0.62,1.42-0.93,2.69-0.93
					c1.27,0,2.31,0.38,3.12,1.15c0.81,0.77,1.22,1.65,1.22,2.66c0,2.54-0.94,4.75-2.83,6.64c-1.89,1.89-4.12,2.83-6.67,2.83
					c-2.56,0-4.7-0.33-6.42-1c-1.63-0.67-2.78-1.39-3.44-2.15c-1.72-2.11-3.64-3.13-5.74-3.09c-1.39,0.53-1.96,1.46-1.72,2.8
					c0.24,1.34-0.46,2.3-2.08,2.87c-1.48,0-2.74-0.36-3.77-1.08c-1.03-0.72-1.54-2.01-1.54-3.88c0-1.87,0.96-3.64,2.87-5.31
					c1.91-1.67,4.5-2.51,7.75-2.51c1.2,0,3.32,0.99,6.39,2.98c3.06,1.99,5.07,2.98,6.03,2.98c0.96,0,1.69-0.31,2.19-0.93
					C315.3,183.45,315.62,182.78,315.77,182.06z M310.6,271.7c-0.29-1.43-0.43-3.94-0.43-7.5s-0.2-7.99-0.61-13.28
					s-0.99-11.43-1.76-18.44c-0.77-7.01-1.29-12.09-1.58-15.25c-4.45,24.64-7.32,42.01-8.61,52.1
					C299.29,270.43,303.61,271.22,310.6,271.7z"/>
			</g>
			<g>
				<path class="st0" d="M329.33,253.68l0.14-5.6c0-0.48-0.07-0.72-0.22-0.72v-2.66c0-15.4,0.88-26.36,2.66-32.87
					c1.48-5.5,2.92-8.9,4.31-10.19c1.39-1.29,2.75-1.94,4.09-1.94c11.39,0,19.23,5.74,23.54,17.23c2.49,6.6,3.73,14.74,3.73,24.4
					v1.08l0.29,16.65c0,28.18-6.53,42.27-19.59,42.27c-5.41,0-9.54-2.99-12.42-8.97c-2.73-5.74-4.4-11.39-5.02-16.94
					C329.83,267.06,329.33,259.81,329.33,253.68z M338.02,233.59l-0.72,13.56c0,14.21,1.15,26.6,3.44,37.18
					c2.44,6.17,4.76,9.81,6.96,10.91c1.77,0,3.37-0.72,4.81-2.15c1.44-1.43,2.57-3.36,3.41-5.78c0.84-2.41,1.54-4.96,2.12-7.64
					c0.53-2.63,0.93-5.45,1.22-8.47c0.48-5.21,0.72-9.66,0.72-13.35c0-3.68-0.32-9.33-0.97-16.94c-0.65-7.61-0.97-13.28-0.97-17.01
					v-2.58c-0.1-3.59-1.27-6.78-3.52-9.58c-2.25-2.8-5.12-4.2-8.61-4.2c-3.35,0-5.57,1.89-6.67,5.67c-0.91,3.16-1.36,7.06-1.36,11.7
					L338.02,233.59z"/>
			</g>
			<g>
				<path class="st0" d="M377.56,292.44l6.1,1.08c1.87,0,3.49-0.81,4.88-2.44c1.39-1.63,2.41-3.66,3.09-6.1
					c1.29-4.69,1.94-8.84,1.94-12.45c0-3.61-0.6-7.19-1.79-10.73c-1.2-3.54-2.67-6.83-4.41-9.87c-1.75-3.04-3.48-6.14-5.2-9.29
					c-4.12-7.46-6.17-14.78-6.17-21.96c0-4.4,0.74-8.3,2.22-11.7c2.77-6.32,6.46-9.47,11.05-9.47c1.72,0,3.36,0.55,4.92,1.65
					c1.55,1.1,2.33,2.3,2.33,3.59c0,2.25-1.2,3.37-3.59,3.37c-1.05,0-2.08-0.29-3.09-0.86c-3.11,0.14-5.22,3.61-6.32,10.41
					c-0.24,1.48-0.36,3.22-0.36,5.2c0,1.99,0.43,4.44,1.29,7.36c0.86,2.92,1.95,5.51,3.27,7.79c1.31,2.27,2.73,4.78,4.23,7.54
					c1.51,2.75,2.93,5.42,4.27,8c3.06,5.98,4.57,12.82,4.52,20.53c0.05,5.93-1.32,11.6-4.09,17.01c-1.34,2.68-3.24,4.87-5.71,6.57
					c-2.46,1.7-5.28,2.57-8.43,2.62v0.36c-4.02-0.58-6.22-2.46-6.6-5.67L377.56,292.44z"/>
			</g>
			<g>
				<path class="st0" d="M244.93,394.03l0.43-46.29c0-3.16-0.29-7.98-0.86-14.46c-0.57-6.48-0.86-10.61-0.86-12.38
					s0.55-3.15,1.65-4.13c1.1-0.98,2.27-1.47,3.52-1.47c10.09,0,18.3,5.91,24.62,17.73c3.64,6.74,5.45,13.87,5.45,21.39l-0.29,7.39
					v8.11c0,9.86-0.44,16.43-1.33,19.73c-0.89,3.3-1.81,6.05-2.76,8.26c-0.96,2.2-2.11,4.16-3.44,5.88
					c-3.11,3.92-7.03,7.08-11.77,9.47h-10.62C246.18,413.26,244.93,406.85,244.93,394.03z M255.2,402.28v3.52
					c8.51,0,13.64-8.61,15.36-25.84c0.38-3.97,0.57-7.8,0.57-11.48c0-29.57-5.69-45.02-17.08-46.36c-0.72,3.88-1.08,9.2-1.08,15.97
					c0,6.77,0.37,17.36,1.11,31.76S255.2,395.06,255.2,402.28z"/>
			</g>
			<g>
				<path class="st0" d="M289.65,338.19l-0.79-12.42c0-6.94,2.06-10.41,6.17-10.41c2.63,0,6.22,0.61,10.77,1.83
					c4.55,1.22,6.82,2.79,6.82,4.7c0,2.01-1.44,3.54-4.31,4.59c-4.55-1.53-8.25-2.46-11.12-2.8c0.14,2.11,0.22,4.21,0.22,6.32
					l-0.65,21.1c0,0.1,0.14,0.86,0.43,2.3l5.24-0.22c4.74,0,7.1,1.34,7.1,4.02c0,1.05-0.43,1.97-1.29,2.76
					c-0.86,0.79-1.95,1.18-3.27,1.18c-1.32,0-2.74-0.1-4.27-0.29h-3.73c0.29,3.73,0.43,7.44,0.43,11.12l-0.65,26.62
					c0,5.5,0.1,8.25,0.29,8.25l10.84-0.36c3.73,0,5.6,1.2,5.6,3.59c0,1.48-0.65,2.56-1.94,3.23s-2.75,1-4.38,1h-12.42
					c-1.29,0-2.46-0.44-3.52-1.33c-1.05-0.88-1.6-1.95-1.65-3.19v-3.88l-0.93-24.83L289.65,338.19z"/>
			</g>
			<g>
				<path class="st0" d="M336.51,367.47l0.14-5.6c0-0.48-0.07-0.72-0.22-0.72v-2.66c0-15.41,0.88-26.36,2.66-32.87
					c1.48-5.5,2.92-8.9,4.31-10.19c1.39-1.29,2.75-1.94,4.09-1.94c11.39,0,19.23,5.74,23.54,17.22c2.49,6.6,3.73,14.74,3.73,24.4
					v1.08l0.29,16.65c0,28.18-6.53,42.27-19.59,42.27c-5.41,0-9.54-2.99-12.42-8.97c-2.73-5.74-4.4-11.39-5.02-16.94
					C337.01,380.85,336.51,373.6,336.51,367.47z M345.19,347.38l-0.72,13.56c0,14.21,1.15,26.6,3.44,37.18
					c2.44,6.17,4.76,9.81,6.96,10.91c1.77,0,3.37-0.72,4.81-2.15c1.44-1.43,2.57-3.36,3.41-5.78c0.84-2.41,1.54-4.96,2.12-7.64
					c0.53-2.63,0.93-5.45,1.22-8.47c0.48-5.21,0.72-9.66,0.72-13.35c0-3.68-0.32-9.33-0.97-16.94c-0.65-7.61-0.97-13.28-0.97-17.01
					v-2.58c-0.1-3.59-1.27-6.78-3.52-9.58c-2.25-2.8-5.12-4.2-8.61-4.2c-3.35,0-5.57,1.89-6.67,5.67c-0.91,3.16-1.36,7.06-1.36,11.7
					L345.19,347.38z"/>
			</g>
			<g>
				<path class="st0" d="M384.74,406.23l6.1,1.08c1.87,0,3.49-0.81,4.88-2.44c1.39-1.63,2.41-3.66,3.09-6.1
					c1.29-4.69,1.94-8.84,1.94-12.45s-0.6-7.19-1.79-10.73c-1.2-3.54-2.67-6.83-4.41-9.87c-1.75-3.04-3.48-6.14-5.2-9.29
					c-4.12-7.47-6.17-14.78-6.17-21.96c0-4.4,0.74-8.3,2.22-11.7c2.77-6.32,6.46-9.47,11.05-9.47c1.72,0,3.36,0.55,4.92,1.65
					c1.55,1.1,2.33,2.3,2.33,3.59c0,2.25-1.2,3.37-3.59,3.37c-1.05,0-2.08-0.29-3.09-0.86c-3.11,0.14-5.22,3.61-6.32,10.41
					c-0.24,1.48-0.36,3.22-0.36,5.2c0,1.99,0.43,4.44,1.29,7.36c0.86,2.92,1.95,5.51,3.27,7.79c1.31,2.27,2.73,4.78,4.23,7.53
					c1.51,2.75,2.93,5.42,4.27,8c3.06,5.98,4.57,12.82,4.52,20.52c0.05,5.93-1.32,11.6-4.09,17.01c-1.34,2.68-3.24,4.87-5.71,6.57
					c-2.46,1.7-5.28,2.57-8.43,2.62v0.36c-4.02-0.58-6.22-2.46-6.6-5.67L384.74,406.23z"/>
			</g>
			<g>
				<path class="st0" d="M448.68,382.54l1.58,9.04c0,1.2,0.46,4.12,1.4,8.76c0.93,4.64,1.4,7.68,1.4,9.11v0.14
					c0,2.15-0.81,3.54-2.44,4.16c-2.06,0-3.66-0.34-4.81-1c-1.15-0.67-1.72-1.96-1.72-3.88c0-4.16-0.71-10.22-2.15-18.16l-14.5-2.15
					c-0.91,3.25-1.6,6.82-2.08,10.69c-0.48,3.88-0.93,6.7-1.36,8.47c-0.86,3.64-2.46,5.46-4.81,5.46c-1.15,0-2.21-0.37-3.19-1.11
					c-0.98-0.74-1.47-1.69-1.47-2.83l0.36-1.29c6.6-25.5,11.51-50.33,14.71-74.49c0.1-0.67,0.24-2.63,0.43-5.89
					c0.48-7.18,1.39-11.75,2.73-13.71h4.95c1.34,0,2.51,0.31,3.52,0.93c1,0.62,1.51,1.55,1.51,2.8c0,7.46,0.99,18.54,2.98,33.23
					S448.68,376.09,448.68,382.54z M441,385.49c-0.29-1.43-0.43-3.94-0.43-7.5s-0.2-7.99-0.61-13.28c-0.41-5.29-1-11.43-1.76-18.44
					c-0.77-7.01-1.29-12.09-1.58-15.25c-4.45,24.64-7.32,42.01-8.61,52.1C429.69,384.22,434.02,385.01,441,385.49z"/>
			</g>
			<g>
				<path class="st0" d="M461.24,406.23l6.1,1.08c1.87,0,3.49-0.81,4.88-2.44c1.39-1.63,2.42-3.66,3.09-6.1
					c1.29-4.69,1.94-8.84,1.94-12.45s-0.6-7.19-1.79-10.73c-1.2-3.54-2.67-6.83-4.41-9.87c-1.75-3.04-3.48-6.14-5.2-9.29
					c-4.12-7.47-6.17-14.78-6.17-21.96c0-4.4,0.74-8.3,2.22-11.7c2.77-6.32,6.46-9.47,11.05-9.47c1.72,0,3.36,0.55,4.92,1.65
					c1.56,1.1,2.33,2.3,2.33,3.59c0,2.25-1.2,3.37-3.59,3.37c-1.05,0-2.08-0.29-3.09-0.86c-3.11,0.14-5.21,3.61-6.31,10.41
					c-0.24,1.48-0.36,3.22-0.36,5.2c0,1.99,0.43,4.44,1.29,7.36c0.86,2.92,1.95,5.51,3.26,7.79c1.32,2.27,2.73,4.78,4.23,7.53
					c1.51,2.75,2.93,5.42,4.27,8c3.06,5.98,4.57,12.82,4.52,20.52c0.05,5.93-1.32,11.6-4.09,17.01c-1.34,2.68-3.24,4.87-5.71,6.57
					c-2.46,1.7-5.27,2.57-8.43,2.62v0.36c-4.02-0.58-6.22-2.46-6.6-5.67L461.24,406.23z"/>
			</g>
			<g>
				<path class="st0" d="M491.38,376.87l-0.07-8.61v-3.52c0-14.45,0.72-24.5,2.15-30.14c1.72-6.99,4.11-11.82,7.18-14.5
					c4.16-3.73,9.43-5.6,15.79-5.6c1.53,0,2.66,0.36,3.41,1.08c0.74,0.72,1.11,1.58,1.11,2.58c0,1.01-0.3,1.9-0.9,2.69
					c-0.6,0.79-1.35,1.21-2.26,1.25h-6.89c-2.01,0-3.76,1.29-5.24,3.88c-1.44,2.58-2.49,5.74-3.16,9.47
					c-1.24,7.08-1.84,12.94-1.79,17.58v0.72l-0.64,28.35c0,5.98,0.32,10.12,0.97,12.42c0.65,2.3,1.32,4.15,2.01,5.56
					c0.69,1.41,1.52,2.57,2.47,3.48c2.2,2.11,5.02,3.16,8.47,3.16c1.15,0,2.2-0.43,3.16-1.29c1.15,0,2.18,0.26,3.09,0.79
					c0.91,0.53,1.37,1.34,1.37,2.44c0,3.88-2.7,5.81-8.11,5.81c-2.2,0-4.51-0.32-6.93-0.97c-2.42-0.65-4.22-1.35-5.42-2.12
					C494.63,407.18,491.38,395.68,491.38,376.87z"/>
			</g>
			<g>
				<path class="st0" d="M527.91,367.47l0.14-5.6c0-0.48-0.07-0.72-0.22-0.72v-2.66c0-15.41,0.89-26.36,2.66-32.87
					c1.48-5.5,2.92-8.9,4.31-10.19s2.75-1.94,4.09-1.94c11.39,0,19.23,5.74,23.54,17.22c2.49,6.6,3.73,14.74,3.73,24.4v1.08
					l0.29,16.65c0,28.18-6.53,42.27-19.59,42.27c-5.41,0-9.54-2.99-12.41-8.97c-2.73-5.74-4.4-11.39-5.02-16.94
					C528.41,380.85,527.91,373.6,527.91,367.47z M536.6,347.38l-0.72,13.56c0,14.21,1.15,26.6,3.44,37.18
					c2.44,6.17,4.76,9.81,6.96,10.91c1.77,0,3.37-0.72,4.81-2.15c1.43-1.43,2.57-3.36,3.41-5.78c0.84-2.41,1.54-4.96,2.12-7.64
					c0.53-2.63,0.93-5.45,1.22-8.47c0.48-5.21,0.72-9.66,0.72-13.35c0-3.68-0.32-9.33-0.97-16.94c-0.64-7.61-0.97-13.28-0.97-17.01
					v-2.58c-0.1-3.59-1.27-6.78-3.52-9.58c-2.25-2.8-5.12-4.2-8.61-4.2c-3.35,0-5.57,1.89-6.68,5.67c-0.91,3.16-1.36,7.06-1.36,11.7
					L536.6,347.38z"/>
			</g>
		</g>
		<g>
			<path class="st0" d="M234.62,416.23h-16.98c-1.99,0-3.61-1.62-3.61-3.61s1.62-3.61,3.61-3.61h16.98c1.99,0,3.61,1.62,3.61,3.61
				S236.61,416.23,234.62,416.23z M200.67,416.23h-16.98c-1.99,0-3.61-1.62-3.61-3.61s1.62-3.61,3.61-3.61h16.98
				c1.99,0,3.61,1.62,3.61,3.61S202.66,416.23,200.67,416.23z M166.71,416.23h-16.98c-1.99,0-3.61-1.62-3.61-3.61
				s1.62-3.61,3.61-3.61h16.98c1.99,0,3.61,1.62,3.61,3.61S168.71,416.23,166.71,416.23z M132.76,416.23h-16.98
				c-1.99,0-3.61-1.62-3.61-3.61s1.62-3.61,3.61-3.61h16.98c1.99,0,3.61,1.62,3.61,3.61S134.76,416.23,132.76,416.23z"/>
		</g>
		<path class="st0" d="M590.44,260.34c-0.28-5.4-2.64-10.38-6.66-14c-8.29-7.48-21.13-6.82-28.61,1.47
			c-3.37,3.73-5.08,8.38-5.2,13.05l-21.85-8.95l10.13-21.53c0.3,0.31,0.61,0.62,0.94,0.91c3.87,3.49,8.72,5.21,13.56,5.21
			c5.54,0,11.06-2.25,15.05-6.68c7.48-8.29,6.82-21.13-1.47-28.61c-4.02-3.62-9.18-5.48-14.61-5.19c-5.4,0.28-10.38,2.64-14,6.66v0
			c-5.17,5.73-6.45,13.61-4.02,20.41l-11.9,25.31c-8.67-6.44-18.87-12.93-30.02-15.06c-23.14-4.42-33.16,8.71-38.59,15.83
			c-0.39,0.52-0.74,1.11-1.05,1.74c-0.42,0.58-0.68,1.27-0.69,2.04c-0.02,1.99,1.57,3.63,3.57,3.66l59.4,0.72l-41.7,40.34
			c-0.69,0.36-1.28,0.94-1.62,1.71c-0.81,1.82,0.01,3.95,1.83,4.77c0.79,0.35,1.59,0.61,2.42,0.76c2.94,0.57,6.73,1.29,11.01,1.29
			c8.42,0,18.74-2.82,28.22-15.23c6.99-9.16,10.26-21,12.43-31.7l24.56,10.07c1.12,2.63,2.8,5.06,5.06,7.1
			c3.75,3.39,8.53,5.22,13.55,5.22c0.35,0,0.71-0.01,1.07-0.03c5.4-0.28,10.38-2.65,14-6.66
			C588.88,270.93,590.72,265.74,590.44,260.34z M543.08,207.5C543.08,207.5,543.08,207.5,543.08,207.5
			c2.33-2.59,5.53-4.11,9.01-4.29c0.23-0.01,0.46-0.02,0.69-0.02c3.23,0,6.3,1.18,8.72,3.36c5.34,4.82,5.76,13.08,0.95,18.41
			c-4.81,5.34-13.08,5.76-18.41,0.95C538.69,221.1,538.26,212.84,543.08,207.5z M490.42,240.42c7.46,1.43,14.66,5.25,21.22,9.63
			l-49.46-0.6C467.4,243.37,475.1,237.49,490.42,240.42z M508.84,286.57c-9.35,12.24-18.89,13.12-26.82,12.12l36.74-35.53
			C516.77,271.47,513.88,279.98,508.84,286.57z M579.89,270.11c-2.33,2.59-5.53,4.11-9.01,4.29c-3.49,0.17-6.82-1.01-9.4-3.34
			c-5.34-4.82-5.76-13.08-0.95-18.41c2.57-2.85,6.12-4.3,9.69-4.3c3.11,0,6.24,1.11,8.73,3.35c2.59,2.33,4.11,5.53,4.29,9.01
			C583.41,264.19,582.22,267.52,579.89,270.11z"/>
		<g>
			<path class="st0" d="M462.32,302.22h-16.98c-1.99,0-3.61-1.62-3.61-3.61c0-1.99,1.62-3.61,3.61-3.61h16.98
				c1.99,0,3.61,1.62,3.61,3.61C465.93,300.6,464.31,302.22,462.32,302.22z M428.37,302.22h-16.98c-1.99,0-3.61-1.62-3.61-3.61
				c0-1.99,1.62-3.61,3.61-3.61h16.98c1.99,0,3.61,1.62,3.61,3.61C431.98,300.6,430.36,302.22,428.37,302.22z"/>
		</g>
		<g>
			<path class="st0" d="M176.84,407.05l-85.12-98.01c-1.5-1.73-3.68-2.72-6.15-2.81c-3.31-0.13-6.96,1.45-9.7,4.19
				c-2.74,2.74-4.31,6.37-4.19,9.7c0.09,2.47,1.09,4.65,2.81,6.15l98.01,85.12c0.58,0.5,1.3,0.75,2.01,0.75
				c0.79,0,1.58-0.3,2.17-0.9C177.84,410.1,177.9,408.27,176.84,407.05z M78.53,321.63c-0.44-0.38-0.67-0.96-0.7-1.72
				c-0.06-1.63,0.86-3.6,2.4-5.14c1.49-1.49,3.39-2.4,4.99-2.4c0.05,0,0.1,0,0.15,0c0.76,0.03,1.35,0.26,1.73,0.7l56.51,65.06
				L78.53,321.63z"/>
			<path class="st0" d="M82.44,316.98c-1.2,1.2-1.2,3.14,0,4.34l5.77,5.77c0.6,0.6,1.39,0.9,2.17,0.9c0.79,0,1.57-0.3,2.17-0.9
				c1.2-1.2,1.2-3.14,0-4.34l-5.77-5.77C85.58,315.78,83.63,315.78,82.44,316.98z"/>
		</g>
		<g>
			<path class="st0" d="M36.77,410.79c-8.14,0-14.49-2.32-14.94-2.49c-1.59-0.6-2.39-2.37-1.8-3.95s2.37-2.4,3.95-1.8
				c0.15,0.06,16.19,5.86,28.36-2.24c8.96-5.96,13.88-17.99,14.62-35.75c0.87-20.96,6.95-36.73,18.06-46.86
				c13.32-12.14,28.88-11.51,29.54-11.46c1.69,0.09,3,1.53,2.91,3.22c-0.09,1.69-1.54,2.98-3.21,2.91l0,0
				c-0.13,0.01-13.8-0.49-25.18,9.94c-9.8,8.99-15.18,23.29-15.98,42.5c-0.83,19.87-6.68,33.54-17.4,40.64
				C49.5,409.58,42.67,410.79,36.77,410.79z"/>
		</g>
	</g>
</g>
</svg>
