<svg xmlns="http://www.w3.org/2000/svg" width="143.541" height="70" viewBox="0 0 143.541 70"><defs><style>.a{fill:#48626f;}.b{fill:#ed1c24;}.c{fill:#c7c8ca;}</style></defs><g transform="translate(49.057 8.57)"><path class="a" d="M291.645,71.308c0,.3.007.582.019.853s.019.537.019.794c0,.116,0,.222-.01.32a1.467,1.467,0,0,0,.01.3,6.549,6.549,0,0,0,.057.872q.136.931-.775.872a.941.941,0,0,1-.407-.136.633.633,0,0,1-.195-.813c.026-.129.049-.283.068-.466a3.772,3.772,0,0,0,.01-.6V69.893c0-.516,0-1.038-.01-1.561s-.01-1.057-.01-1.6q0-.931.01-1.821t-.01-1.821v-.853a3.424,3.424,0,0,0-.116-.872c-.09-.323.052-.535.426-.64a1.283,1.283,0,0,1,.494-.019c.162.026.332.057.514.1s.362.1.542.146a4.221,4.221,0,0,1,.561.184,2.391,2.391,0,0,1,1.222,1.163c.09.221.188.44.29.659a2.191,2.191,0,0,1,.195.7,1.965,1.965,0,0,0,.03.339c.019.109.035.222.049.339a11.494,11.494,0,0,1-.136,2.83q-.117.581-.282,1.125a5.665,5.665,0,0,1-.436,1.046,6.019,6.019,0,0,0-.309.629,5.012,5.012,0,0,1-.309.61,1.932,1.932,0,0,1-.155.2.9.9,0,0,0-.136.2.8.8,0,0,1-.813.349A2.856,2.856,0,0,0,291.645,71.308Zm0-1.008a1.649,1.649,0,0,1,.165-.146.635.635,0,0,0,.146-.165,2.629,2.629,0,0,0,.2-.309c.057-.1.127-.214.2-.33a2.766,2.766,0,0,0,.368-.6c.155-.49.3-.979.445-1.463a6.556,6.556,0,0,0,.252-1.542,7.953,7.953,0,0,0,.019-.97c-.012-.309-.033-.607-.057-.892a2.516,2.516,0,0,0-1.125-1.861.608.608,0,0,0-.6-.057q-.117,2.112-.087,4.177T291.645,70.3Z" transform="translate(-290.279 -60.667)"/><path class="a" d="M320.519,75.349a.983.983,0,0,1-.872-.426c-.181-.219-.356-.443-.523-.669a1.655,1.655,0,0,1-.309-.8c0,.014-.033-.109-.1-.368-.078-.195-.146-.381-.2-.561a2.05,2.05,0,0,1-.087-.62,3.9,3.9,0,0,0-.116-.746c-.064-.252-.123-.5-.174-.746a.8.8,0,0,1-.038-.349,3.358,3.358,0,0,0,.019-.349q-.039-.62-.068-1.163t-.03-1.027q0-.735.068-1.512t.2-1.59V64.1a1.548,1.548,0,0,1,.038-.339,5.614,5.614,0,0,1,.485-1.861,1.553,1.553,0,0,0,.155-.5.487.487,0,0,1,.368-.388,1.564,1.564,0,0,1,.407-.019.507.507,0,0,0,.32.01l.32-.106c.129-.038.264-.075.407-.106a1.265,1.265,0,0,1,.407-.03,2.292,2.292,0,0,1,.911.368,2.08,2.08,0,0,1,.309.4c.09.149.188.294.29.436a1.337,1.337,0,0,1,.106.165,1.481,1.481,0,0,0,.106.165,2.773,2.773,0,0,1,.542,1.317c.052.426.1.86.155,1.3a11.024,11.024,0,0,1,.078,1.3c-.014.375-.042.746-.087,1.114s-.087.74-.127,1.114c-.012.1-.03.2-.049.3a.758.758,0,0,0-.01.262,1.739,1.739,0,0,1-.019.678,5.817,5.817,0,0,0-.116.659c-.038.207-.068.414-.087.62a5.963,5.963,0,0,1-.087.6c-.1.452-.21.876-.32,1.269s-.229.76-.358,1.095a2.272,2.272,0,0,1-.282.485c-.109.143-.217.29-.32.445A1.415,1.415,0,0,1,320.519,75.349Zm-.155-13.684c-.078.169-.162.33-.252.485a1.809,1.809,0,0,0-.195.466,4.594,4.594,0,0,0-.165.591c-.045.214-.094.448-.146.707s-.113.5-.146.718-.056.421-.068.6a18.952,18.952,0,0,0-.116,2.113,15.676,15.676,0,0,0,.116,2.6q.057.446.146.881c.057.29.113.579.165.862a6.693,6.693,0,0,0,.233,1.086,5.922,5.922,0,0,0,.368.93c.026.052.056.106.087.165s.075.125.127.2c.129.129.259.116.388-.038-.014.012.019-.038.1-.155a5.537,5.537,0,0,0,.64-1.425,11.741,11.741,0,0,0,.33-1.561q.078-.563.136-1.133c.038-.381.09-.766.155-1.154.078-.542.132-1.088.165-1.637a13.51,13.51,0,0,0-.01-1.7c-.038-.309-.071-.627-.1-.949a3.474,3.474,0,0,0-.214-.949A2.512,2.512,0,0,0,320.365,61.666Z" transform="translate(-313.198 -60.716)"/><path class="a" d="M355.566,73.587a1.658,1.658,0,0,0-.155.989c.012.426-.181.647-.582.659a.2.2,0,0,1-.1.01.378.378,0,0,0-.1-.01c-.271,0-.445-.071-.523-.214a.732.732,0,0,1-.1-.659,2.181,2.181,0,0,0,.174-.94c-.012-.316-.019-.636-.019-.959a4.065,4.065,0,0,0-.038-.542,3.934,3.934,0,0,1-.038-.561q-.021-.581-.038-1.173t-.019-1.173c-.014-.556-.023-1.114-.03-1.677s-.01-1.121-.01-1.677q0-.717.03-1.453t.03-1.474a1.954,1.954,0,0,0-.038-.388,2.046,2.046,0,0,1-.038-.407,1.89,1.89,0,0,1,0-.542.292.292,0,0,1,.116-.233c.116-.09.226-.17.33-.242a2.632,2.632,0,0,1,.309-.184.716.716,0,0,1,.561-.038,1.939,1.939,0,0,1,.485.252c.309.233.62.474.93.727a8.128,8.128,0,0,1,.872.824,3.781,3.781,0,0,1,.466.834c.078.233.146.455.2.669a4.753,4.753,0,0,1,.127.629,10.309,10.309,0,0,1,.1,1.038,7.581,7.581,0,0,1-.019.94q-.057.62-.078,1.231c-.012.407-.038.812-.078,1.211a4.6,4.6,0,0,1-.523,1.8q-.214.349-.407.688a2.216,2.216,0,0,1-.485.591l-.445.426a1.855,1.855,0,0,0,.872.813.99.99,0,0,1,.485.62.589.589,0,0,1-.127.514.458.458,0,0,1-.474.165.849.849,0,0,1-.222-.03c-.071-.019-.146-.035-.222-.049a.485.485,0,0,1-.388-.271A2.1,2.1,0,0,0,355.566,73.587Zm-.155-1.938a.811.811,0,0,0,.542-.349,7.052,7.052,0,0,0,.417-.591q.2-.321.417-.688a1.547,1.547,0,0,0,.195-.582q.136-.931.233-1.861a14.327,14.327,0,0,0,.057-1.658,8.647,8.647,0,0,0-.155-1.463,3.222,3.222,0,0,0-1.086-1.938,2.8,2.8,0,0,1-.3-.262.611.611,0,0,0-.4-.165c0,.1,0,.229-.01.377s-.016.313-.03.494v1.357a3.192,3.192,0,0,1-.019.368l-.057.892c-.012.195-.023.365-.03.514s-.01.275-.01.377c0,.143.007.285.019.426s.019.278.019.407a3.3,3.3,0,0,1,.019.377v.514c0,.155,0,.308.01.455s.016.294.03.436v.455a1.458,1.458,0,0,0,.057.417,1.755,1.755,0,0,1-.01.417,1.044,1.044,0,0,0,.01.377c.012.1.026.229.038.377S355.4,71.455,355.411,71.649Z" transform="translate(-342.89 -60.64)"/><path class="a" d="M379.863,62.2a6.265,6.265,0,0,0-1.415.116.73.73,0,0,1-.629-.146.778.778,0,0,1-.339-.534.607.607,0,0,1,.038-.214.511.511,0,0,0,.038-.195,2.911,2.911,0,0,1,.892-.1,6.185,6.185,0,0,0,.862.019l.862-.038c.078,0,.162,0,.252-.01s.181-.01.271-.01c.245.012.494.023.746.03s.508.01.766.01a2.276,2.276,0,0,0,.282-.019,2.407,2.407,0,0,1,.3-.019,2.245,2.245,0,0,1,.65.068,3.414,3.414,0,0,1,.591.3,1.091,1.091,0,0,1-.155.892.924.924,0,0,1-.466.271.449.449,0,0,1-.466-.1.981.981,0,0,0-.582-.242,3.692,3.692,0,0,1-.582-.068.273.273,0,0,0-.087.01.2.2,0,0,1-.068.01,1.079,1.079,0,0,1-.242-.03c-.083-.019-.139-.016-.165.01a.739.739,0,0,0-.116.485c.012.221.026.459.038.718s.023.523.03.794.01.537.01.794v.7a1.614,1.614,0,0,0,.01.4,2.737,2.737,0,0,1,.03.377q0,.756.03,1.5t.03,1.5q0,.813-.03,1.589c-.019.516-.023,1.034-.01,1.55,0,.245,0,.488-.01.727a5.027,5.027,0,0,0,.03.707,6.868,6.868,0,0,0,.174.911.808.808,0,0,1-.29.775.371.371,0,0,1-.445.1c-.155-.064-.308-.129-.455-.195a.5.5,0,0,1-.282-.388,1.474,1.474,0,0,1-.038-.174q0-.524-.01-1.038t.01-1.038c0-.349.01-.7.03-1.057s.035-.714.049-1.076c0-.271.007-.535.019-.794s.019-.523.019-.794V67.721c-.012-.233-.03-.474-.049-.727s-.03-.5-.03-.746.007-.471.019-.718.026-.485.038-.718c0-.169,0-.368-.01-.6s-.016-.468-.03-.707-.03-.471-.049-.7S379.889,62.38,379.863,62.2Z" transform="translate(-362.324 -60.997)"/><path class="a" d="M415.016,75.764a2.667,2.667,0,0,0-.057-.33.905.905,0,0,1-.019-.33,2.873,2.873,0,0,0,0-.669q-.039-.339-.078-.688c-.026-.219-.056-.448-.087-.688s-.075-.494-.127-.766l-.155-.7a1.9,1.9,0,0,0-.872-.078c-.09.014-.21.03-.358.049s-.327.049-.534.087q-.524.078-.542.542-.057.542-.136,1.086t-.136,1.086a2.346,2.346,0,0,1-.116.407,1.493,1.493,0,0,1-.309.388,1.045,1.045,0,0,0-.309-.03.389.389,0,0,1-.309-.165.907.907,0,0,1-.309-.794l.271-1.279c.078-.375.151-.749.222-1.125s.151-.749.242-1.125q.078-.407.184-.824c.071-.278.139-.558.2-.843.038-.169.068-.313.087-.436s.035-.229.049-.32a6.351,6.351,0,0,1,.195-1.019,6.487,6.487,0,0,0,.193-1.038,3.576,3.576,0,0,1,.136-.64,4.874,4.874,0,0,0,.155-.659l.195-1.377c.038-.271.071-.549.1-.834s.057-.561.1-.834a.972.972,0,0,0,.01-.222,1.792,1.792,0,0,0-.03-.2q-.136-.6.368-.7a7.06,7.06,0,0,1,.718,0q.524,0,.678.678.1.446.146.881c.031.29.068.579.106.862q.057.581.136,1.154c.052.381.1.766.136,1.154s.078.749.116,1.125a11.073,11.073,0,0,1,.057,1.125,1,1,0,0,0,.019.339,2.649,2.649,0,0,1,.057.339q.039.62.087,1.231c.031.407.075.812.125,1.211q.057.524.146,1.046t.165,1.046l.193,1.377c.026.169.052.334.078.494s.057.32.1.474a.653.653,0,0,1-.233.775.464.464,0,0,1-.542,0Zm-1.182-11.32a.017.017,0,0,1-.019-.019l-1.241,6.106c.259-.012.5-.03.727-.049s.455-.042.688-.068a.345.345,0,0,0,.368-.388c0-.064,0-.148-.01-.252s-.016-.226-.03-.368c-.038-.414-.075-.834-.106-1.26s-.061-.853-.087-1.279c-.038-.388-.078-.786-.116-1.192s-.071-.817-.1-1.231Z" transform="translate(-389.652 -60.665)"/><path class="a" d="M445.85,70.088c-.007-.3-.01-.6-.01-.911-.014-.155-.023-.29-.03-.407s-.01-.214-.01-.29q0-.678.03-1.338t.087-1.337c.026-.309.042-.614.049-.911s.016-.6.03-.911c0-.271,0-.539-.01-.8s-.01-.534-.01-.8a3.626,3.626,0,0,0-.03-.445,3.79,3.79,0,0,1-.03-.466q-.057-.464.214-.62a.938.938,0,0,1,.718-.057.5.5,0,0,1,.309.5c0,.285,0,.565.01.843s.01.553.01.824c0,.233-.01.466-.03.7s-.03.466-.03.7c-.012.492-.019.982-.019,1.474s-.014.975-.038,1.453a8.233,8.233,0,0,0-.01,1.309,12.81,12.81,0,0,1,.03,1.29q0,.388.01.766c.007.252.016.5.03.746q0,.214.01.485c.007.181.016.365.03.553s.023.372.03.553.01.335.01.466a1.085,1.085,0,0,0,.049.33c.033.1.068.207.106.309.038.129.148.195.33.195a1.308,1.308,0,0,0,.271-.03c.09-.019.188-.035.29-.049h1.434c.143,0,.287,0,.436-.01s.3-.016.455-.03a.531.531,0,0,1,.5.29.558.558,0,0,1-.019.582.575.575,0,0,1-.5.252c-.143,0-.278-.007-.407-.019s-.252-.019-.368-.019c-.233,0-.469-.007-.707-.019s-.474-.019-.707-.019a4.23,4.23,0,0,0-.64.087,2.811,2.811,0,0,1-.6.068,4.831,4.831,0,0,1-.872-.116.138.138,0,0,1-.136-.1,1.944,1.944,0,0,1-.214-1.008,1.331,1.331,0,0,0,.019-.242v-.339c0-.169,0-.365-.01-.591s-.012-.459-.019-.7-.014-.468-.019-.688-.01-.421-.01-.6h.019C445.866,70.682,445.857,70.385,445.85,70.088Z" transform="translate(-418.77 -60.707)"/><path class="a" d="M508.3,74.714c-.542.195-.879.033-1.008-.485a1.861,1.861,0,0,1,0-.368,4.465,4.465,0,0,0,.038-1.3,1.3,1.3,0,0,1-.03-.358c.007-.123.01-.249.01-.377,0-.582,0-1.156-.01-1.726s-.01-1.144-.01-1.726.007-1.173.019-1.773.019-1.2.019-1.794c0-.335,0-.669.01-1s0-.662-.01-1c0-.181-.01-.375-.03-.582s-.056-.44-.106-.7a.744.744,0,0,1,.146-.591.628.628,0,0,1,.534-.282,2.763,2.763,0,0,1,.309.057,2.417,2.417,0,0,0,.309.057c.038.012.08.026.125.038a.494.494,0,0,0,.146.019,2.018,2.018,0,0,1,1.705,1.065,4.78,4.78,0,0,1,.349.794q.136.407.252.813c.078.271.165.541.261.8s.184.534.262.8a5.8,5.8,0,0,1,.125.582,2.094,2.094,0,0,0,.165.542,1.836,1.836,0,0,1,.1.688,2.967,2.967,0,0,0,.038.669c0,.143-.007.282-.019.417s-.019.268-.019.4c-.012.195-.033.384-.057.572s-.045.377-.057.572a5.832,5.832,0,0,1-.3,1.279q-.224.62-.455,1.222l-.193.445a4.112,4.112,0,0,0-.2.426,2.773,2.773,0,0,1-.2.407l-.349.582c-.116.195-.226.388-.33.582a.887.887,0,0,1-1.125.485.415.415,0,0,1-.214-.106C508.426,74.82,508.361,74.766,508.3,74.714Zm.233-12.735a1.652,1.652,0,0,0-.019.33c0,.207,0,.417.01.629s.01.417.01.61c-.014.542-.023,1.072-.03,1.59s-.01,1.034-.01,1.55v2c-.012.3-.026.591-.038.881s-.012.579,0,.862c.012.375.026.744.038,1.105a10.011,10.011,0,0,0,.1,1.086,2.486,2.486,0,0,1,0,.426.574.574,0,0,0,.1.388.7.7,0,0,0,.775-.485l.174-.388q.214-.581.445-1.154t.447-1.173a2.389,2.389,0,0,0,.125-.582c.019-.207.049-.414.087-.62a8.117,8.117,0,0,0-.252-3.431l-.309-.93c-.09-.271-.174-.546-.252-.824s-.162-.558-.252-.843a5.11,5.11,0,0,0-.407-.756A.639.639,0,0,0,508.53,61.979Z" transform="translate(-469.479 -60.642)"/><path class="a" d="M539.879,75.349a.983.983,0,0,1-.872-.426c-.181-.219-.356-.443-.523-.669a1.655,1.655,0,0,1-.309-.8c0,.014-.033-.109-.1-.368-.078-.195-.146-.381-.2-.561a2.051,2.051,0,0,1-.087-.62,3.773,3.773,0,0,0-.116-.746c-.064-.252-.123-.5-.174-.746a.8.8,0,0,1-.038-.349,3.367,3.367,0,0,0,.019-.349q-.039-.62-.068-1.163c-.019-.362-.03-.7-.03-1.027q0-.735.068-1.512t.2-1.59V64.1a1.548,1.548,0,0,1,.038-.339,5.572,5.572,0,0,1,.485-1.861,1.553,1.553,0,0,0,.155-.5.487.487,0,0,1,.368-.388,1.564,1.564,0,0,1,.407-.019.507.507,0,0,0,.32.01l.32-.106c.129-.038.264-.075.407-.106a1.265,1.265,0,0,1,.407-.03,2.293,2.293,0,0,1,.911.368,2.081,2.081,0,0,1,.309.4c.09.149.188.294.29.436a1.344,1.344,0,0,1,.106.165,1.473,1.473,0,0,0,.106.165,2.772,2.772,0,0,1,.542,1.317c.052.426.1.86.155,1.3a11.024,11.024,0,0,1,.078,1.3c-.012.375-.042.746-.087,1.114s-.087.74-.125,1.114c-.012.1-.03.2-.049.3a.757.757,0,0,0-.01.262,1.707,1.707,0,0,1-.019.678,5.8,5.8,0,0,0-.116.659c-.038.207-.068.414-.087.62a5.963,5.963,0,0,1-.087.6c-.1.452-.21.876-.32,1.269s-.229.76-.358,1.095a2.272,2.272,0,0,1-.282.485c-.109.143-.217.29-.32.445A1.42,1.42,0,0,1,539.879,75.349Zm-.155-13.684c-.078.169-.162.33-.252.485a1.808,1.808,0,0,0-.195.466,4.59,4.59,0,0,0-.165.591c-.045.214-.094.448-.146.707s-.113.5-.146.718-.056.421-.068.6a18.944,18.944,0,0,0-.116,2.113,15.679,15.679,0,0,0,.116,2.6q.057.446.146.881c.057.29.113.579.165.862a6.693,6.693,0,0,0,.233,1.086,5.922,5.922,0,0,0,.368.93c.026.052.056.106.087.165s.075.125.125.2c.129.129.259.116.388-.038a.824.824,0,0,1,.1-.155,5.535,5.535,0,0,0,.64-1.425,11.756,11.756,0,0,0,.33-1.561q.078-.563.136-1.133c.038-.381.09-.766.155-1.154.078-.542.132-1.088.165-1.637a13.188,13.188,0,0,0-.01-1.7c-.038-.309-.071-.627-.1-.949a3.474,3.474,0,0,0-.214-.949A2.507,2.507,0,0,0,539.725,61.666Z" transform="translate(-494.433 -60.716)"/><path class="a" d="M571.919,71.179c.012-.195.146-.33.4-.407.076-.012.143-.023.2-.03a.216.216,0,0,1,.123.01q.673,0,.518.737c-.038.169-.08.334-.125.494a4.168,4.168,0,0,0-.106.474,1.648,1.648,0,0,0,.412,1.357.292.292,0,0,0,.255.136.61.61,0,0,0,.57-.155.713.713,0,0,0,.275-.561,4.51,4.51,0,0,0-.193-1.377c-.129-.466-.278-.923-.445-1.377s-.335-.911-.5-1.377c-.129-.349-.259-.692-.388-1.027s-.264-.678-.407-1.027a3.781,3.781,0,0,1-.3-1.076c-.045-.368-.082-.746-.106-1.133-.026-.155-.052-.32-.078-.494s-.045-.351-.057-.534a3.3,3.3,0,0,1,.049-1.038q.107-.514.2-1.038a.754.754,0,0,1,.426-.6,2.022,2.022,0,0,0,.233-.136l.233-.155a1.178,1.178,0,0,1,1.55,0,4.515,4.515,0,0,1,.466.6,2.431,2.431,0,0,1,.136.33,1.121,1.121,0,0,0,.155.309,5.39,5.39,0,0,1,.33,1.3c.026.233.042.462.049.688a2.311,2.311,0,0,1-.087.688.669.669,0,0,1-.426.5.576.576,0,0,1-.6-.195.37.37,0,0,1-.1-.445,4.42,4.42,0,0,0,.057-1.377,2.129,2.129,0,0,0-.2-.707c-.109-.226-.21-.455-.3-.688a.232.232,0,0,0-.29-.1.921.921,0,0,0-.542.7,4.115,4.115,0,0,0-.1,1.569c.052.452.1.9.146,1.347a4.646,4.646,0,0,0,.32,1.29c.129.362.264.721.407,1.076s.29.707.445,1.057c.026.078.061.174.106.29s.1.252.165.407c.116.362.238.721.368,1.076s.252.714.368,1.076a5.905,5.905,0,0,1,.174.813q.057.407.136.813a.735.735,0,0,1-.01.106c-.007.045-.016.1-.03.165-.052.181-.09.33-.116.445a1.184,1.184,0,0,1-.078.252.812.812,0,0,1-.29.388,3,3,0,0,1-1.648.582,1.137,1.137,0,0,1-.388-.078,2.17,2.17,0,0,1-1.55-2.19v-.33h-.057Z" transform="translate(-522.763 -60.558)"/></g><g transform="translate(47.628 21.184)"><path class="a" d="M291.422,195.209a5.446,5.446,0,0,0-.122-.692,1.939,1.939,0,0,1-.04-.692,6.119,6.119,0,0,0,0-1.4q-.081-.712-.163-1.444c-.054-.461-.116-.942-.182-1.444s-.156-1.038-.264-1.606l-.325-1.465a3.985,3.985,0,0,0-1.83-.163c-.189.028-.441.061-.753.1s-.685.1-1.119.182q-1.1.164-1.138,1.138-.123,1.139-.285,2.279t-.285,2.279a5.005,5.005,0,0,1-.243.853,3.174,3.174,0,0,1-.65.813,2.123,2.123,0,0,0-.65-.061.831.831,0,0,1-.652-.346,1.9,1.9,0,0,1-.65-1.669l.57-2.685q.245-1.178.468-2.36t.509-2.359q.162-.855.386-1.729t.428-1.769c.082-.353.143-.657.182-.916s.075-.481.1-.671a13.927,13.927,0,0,1,.407-2.136,13.818,13.818,0,0,0,.407-2.176,7.335,7.335,0,0,1,.285-1.342,10.339,10.339,0,0,0,.325-1.383l.407-2.889q.122-.855.2-1.748c.054-.6.122-1.18.2-1.748a1.948,1.948,0,0,0,.021-.468c-.014-.149-.035-.29-.061-.428q-.284-1.259.773-1.465a14.486,14.486,0,0,1,1.505,0q1.1,0,1.423,1.423a18.657,18.657,0,0,1,.306,1.851c.068.61.143,1.215.224,1.811q.123,1.22.285,2.421t.285,2.421q.123,1.181.243,2.36a22.828,22.828,0,0,1,.122,2.359,2.081,2.081,0,0,0,.04.713,6.212,6.212,0,0,1,.122.713q.081,1.3.182,2.583t.264,2.543q.123,1.1.306,2.2t.346,2.2l.407,2.889q.081.529.163,1.038t.2,1a1.37,1.37,0,0,1-.488,1.627.978.978,0,0,1-1.138,0Zm-2.482-23.756a.035.035,0,0,1-.04-.04l-2.6,12.815c.542-.026,1.05-.061,1.526-.1s.956-.089,1.444-.143a.724.724,0,0,0,.773-.813c0-.136-.007-.311-.021-.528s-.035-.475-.061-.773q-.123-1.3-.224-2.644t-.182-2.685q-.123-1.22-.243-2.5t-.2-2.583l-.165,0Z" transform="translate(-282.061 -158.286)"/><path class="a" d="M365.273,190.6a3.473,3.473,0,0,0-.325,2.075q.039,1.343-1.22,1.383a.363.363,0,0,1-.2.021.83.83,0,0,0-.2-.021c-.57,0-.935-.149-1.1-.447a1.529,1.529,0,0,1-.2-1.383,4.607,4.607,0,0,0,.367-1.973c-.028-.664-.04-1.335-.04-2.014a8.088,8.088,0,0,0-.082-1.138,8.39,8.39,0,0,1-.082-1.18q-.042-1.22-.082-2.461t-.04-2.461q-.042-1.749-.061-3.52t-.021-3.52q0-1.5.061-3.05t.061-3.092a4.164,4.164,0,0,0-.082-.813,4.376,4.376,0,0,1-.082-.853,4.03,4.03,0,0,1,0-1.138.619.619,0,0,1,.243-.488q.365-.284.692-.509a5.314,5.314,0,0,1,.65-.386,1.506,1.506,0,0,1,1.18-.082,4.078,4.078,0,0,1,1.017.528q.975.733,1.952,1.526a17.019,17.019,0,0,1,1.83,1.729,8.1,8.1,0,0,1,.977,1.748q.245.733.428,1.4a9.469,9.469,0,0,1,.264,1.323,21.72,21.72,0,0,1,.2,2.176,15.97,15.97,0,0,1-.04,1.973q-.123,1.3-.163,2.583t-.163,2.543a9.657,9.657,0,0,1-1.1,3.784q-.448.733-.853,1.444a4.748,4.748,0,0,1-1.017,1.241l-.935.9a3.9,3.9,0,0,0,1.83,1.708,2.085,2.085,0,0,1,1.017,1.3,1.232,1.232,0,0,1-.264,1.078.958.958,0,0,1-1,.346,1.786,1.786,0,0,1-.468-.061c-.149-.04-.306-.075-.468-.1a1.007,1.007,0,0,1-.813-.57A4.357,4.357,0,0,0,365.273,190.6Zm-.325-4.067a1.713,1.713,0,0,0,1.138-.732,14.941,14.941,0,0,0,.874-1.241q.428-.67.874-1.444a3.237,3.237,0,0,0,.407-1.22q.284-1.953.488-3.905a30.757,30.757,0,0,0,.122-3.478,18.029,18.029,0,0,0-.325-3.071,6.778,6.778,0,0,0-2.279-4.069,5.942,5.942,0,0,1-.631-.549,1.276,1.276,0,0,0-.834-.346q0,.326-.021.793t-.061,1.038v2.849a6.57,6.57,0,0,1-.04.773l-.122,1.872c-.028.407-.047.766-.061,1.078s-.021.577-.021.793c0,.3.014.6.04.9s.04.584.04.855a6.779,6.779,0,0,1,.04.793v1.078c0,.325.007.645.021.956s.033.617.061.916v.956a3.011,3.011,0,0,0,.122.874,3.758,3.758,0,0,1-.021.874,2.182,2.182,0,0,0,.021.793c.026.217.054.481.082.793S364.92,186.126,364.948,186.532Z" transform="translate(-348.022 -158.192)"/><path class="a" d="M415.806,166.722a13.138,13.138,0,0,0-2.97.243,1.537,1.537,0,0,1-1.323-.306,1.635,1.635,0,0,1-.713-1.119,1.2,1.2,0,0,1,.082-.447,1.1,1.1,0,0,0,.082-.407,6.116,6.116,0,0,1,1.872-.2,13.351,13.351,0,0,0,1.811.04q.915-.039,1.811-.082c.163,0,.339-.007.528-.021s.379-.021.57-.021c.514.028,1.038.047,1.566.061s1.064.021,1.608.021a4.641,4.641,0,0,0,.589-.04,4.958,4.958,0,0,1,.631-.04,4.673,4.673,0,0,1,1.363.143,7.128,7.128,0,0,1,1.241.631,2.286,2.286,0,0,1-.325,1.872,1.947,1.947,0,0,1-.977.57.948.948,0,0,1-.977-.2,2.074,2.074,0,0,0-1.22-.509,7.482,7.482,0,0,1-1.22-.143.594.594,0,0,0-.182.021.44.44,0,0,1-.143.021,2.31,2.31,0,0,1-.509-.061c-.177-.04-.292-.033-.346.021a1.541,1.541,0,0,0-.243,1.017c.026.462.054.963.082,1.505s.047,1.1.061,1.669.021,1.126.021,1.669v1.465a3.368,3.368,0,0,0,.021.834,5.74,5.74,0,0,1,.061.793q0,1.588.061,3.153t.061,3.153q0,1.708-.061,3.335t-.021,3.254c0,.516-.007,1.024-.021,1.526a10.789,10.789,0,0,0,.061,1.484,14.067,14.067,0,0,0,.367,1.912,1.69,1.69,0,0,1-.61,1.627.776.776,0,0,1-.935.2c-.325-.136-.645-.271-.956-.407a1.029,1.029,0,0,1-.589-.813,3.492,3.492,0,0,1-.082-.367q0-1.1-.021-2.176t.021-2.176q0-1.1.061-2.218t.1-2.258c0-.57.014-1.125.04-1.669s.04-1.1.04-1.669v-3.3c-.028-.488-.061-1-.1-1.526s-.061-1.05-.061-1.566c0-.488.014-.989.04-1.505s.054-1.017.082-1.505q0-.529-.021-1.262c-.014-.488-.035-.982-.061-1.484s-.061-.989-.1-1.465S415.859,167.1,415.806,166.722Z" transform="translate(-388.425 -158.965)"/><path class="a" d="M498.525,167.938l-.468.2a2.075,2.075,0,0,1-.346.122q-1.627.529-2.115-1.22c-.082-.353-.026-.582.163-.692a5.242,5.242,0,0,0,.692-.285,7.035,7.035,0,0,1,.65-.285,4.2,4.2,0,0,0,1.262-.65,1.251,1.251,0,0,1,1.627-.243,3.426,3.426,0,0,0,1.058.2q.975,0,1.933-.061t1.933-.1a2.812,2.812,0,0,0,.306-.021,3.4,3.4,0,0,1,.386-.021,1.591,1.591,0,0,0,.306.306c.122.1.236.182.346.264a1.333,1.333,0,0,1,.285,1.423,1.085,1.085,0,0,1-1.262.57q-1.1-.162-2.157-.264a6.539,6.539,0,0,0-2.115.143q.081,2.808.182,5.553t.224,5.553a6.869,6.869,0,0,1,.713-.122,7.028,7.028,0,0,0,.713-.122,1.039,1.039,0,0,1,.367-.04q1.343,0,1.383.9.122,1.465-1.058,1.587c-.243.028-.488.047-.732.061s-.488.021-.732.021q-.733,0-.732.692,0,.774.04,1.545c.026.516.04,1.017.04,1.505a12.24,12.24,0,0,1-.082,1.423,12.27,12.27,0,0,0-.082,1.423c-.028.271-.04.617-.04,1.038s-.014.93-.04,1.526q0,.855.061,1.465a10.158,10.158,0,0,0,.143,1.017.919.919,0,0,0,.2.367l2.034-.243a1.564,1.564,0,0,1,1.748.732q.936,1.546-.853,1.994a2.139,2.139,0,0,1-1.017,0,3.989,3.989,0,0,0-.977-.122l-2.444.078q-.61.042-1.18.122t-1.138.2a1.585,1.585,0,0,1-1.79-.935.8.8,0,0,1,.04-.935,1.657,1.657,0,0,1,1.952-.61h.447v-.447a1.029,1.029,0,0,1,.122-1.138,1.263,1.263,0,0,0,.082-.528l.082-4.637q.039-1.423.082-2.583t.122-2.094a.806.806,0,0,0-.367-.773,5.551,5.551,0,0,1-.407-.977q-.284-1.017.285-1.383c.163-.082.243-.115.243-.1a1.1,1.1,0,0,0,.325-.1q-.123-2.563-.163-5.086T498.525,167.938Z" transform="translate(-458.453 -159.206)"/><path class="a" d="M563.255,185.534q.039-.61.838-.853c.158-.026.3-.047.419-.061a.474.474,0,0,1,.259.021q1.413,0,1.086,1.545-.123.529-.264,1.038a9.238,9.238,0,0,0-.224,1,3.457,3.457,0,0,0,.866,2.847.616.616,0,0,0,.535.285,1.278,1.278,0,0,0,1.2-.325,1.494,1.494,0,0,0,.577-1.18,9.412,9.412,0,0,0-.407-2.889q-.407-1.465-.935-2.889t-1.058-2.889q-.407-1.1-.813-2.157t-.853-2.155a7.934,7.934,0,0,1-.631-2.258q-.143-1.16-.224-2.379-.081-.488-.163-1.038c-.054-.367-.1-.739-.122-1.119a6.876,6.876,0,0,1,.1-2.176c.149-.718.29-1.444.428-2.176a1.579,1.579,0,0,1,.9-1.262,4.434,4.434,0,0,0,.488-.285l.488-.325a2.473,2.473,0,0,1,3.254,0,9.49,9.49,0,0,1,.977,1.262,5.375,5.375,0,0,1,.285.692,2.46,2.46,0,0,0,.325.652,11.346,11.346,0,0,1,.692,2.725c.054.488.087.97.1,1.444a4.847,4.847,0,0,1-.182,1.444,1.4,1.4,0,0,1-.9,1.058,1.21,1.21,0,0,1-1.262-.407.776.776,0,0,1-.2-.935,9.328,9.328,0,0,0,.122-2.889,4.417,4.417,0,0,0-.428-1.484q-.347-.712-.631-1.444a.483.483,0,0,0-.61-.2,1.934,1.934,0,0,0-1.138,1.465,8.608,8.608,0,0,0-.2,3.3q.162,1.423.306,2.828a9.719,9.719,0,0,0,.671,2.7q.407,1.139.853,2.258t.935,2.218q.081.245.224.61c.094.243.21.528.346.853q.365,1.139.773,2.258t.773,2.258a12.752,12.752,0,0,1,.367,1.708c.082.57.176,1.138.285,1.708a1.66,1.66,0,0,1-.021.224c-.014.1-.035.21-.061.346-.109.381-.189.692-.243.935a2.38,2.38,0,0,1-.163.528,1.706,1.706,0,0,1-.61.813,6.272,6.272,0,0,1-3.457,1.22,2.379,2.379,0,0,1-.813-.163,4.558,4.558,0,0,1-3.254-4.6v-.692h-.122Z" transform="translate(-513.948 -158.007)"/><path class="a" d="M631.022,170.055a5.451,5.451,0,0,0-.122-.692,1.939,1.939,0,0,1-.04-.692,6.126,6.126,0,0,0,0-1.4q-.081-.712-.163-1.444c-.054-.461-.116-.942-.182-1.444s-.156-1.038-.264-1.606l-.325-1.465a3.985,3.985,0,0,0-1.83-.163c-.189.028-.441.061-.753.1s-.685.1-1.119.182q-1.1.164-1.138,1.138-.122,1.139-.285,2.279t-.285,2.279a5.01,5.01,0,0,1-.243.853,3.173,3.173,0,0,1-.65.813,2.123,2.123,0,0,0-.65-.061.831.831,0,0,1-.652-.346,1.9,1.9,0,0,1-.65-1.669l.57-2.685q.245-1.178.468-2.36t.509-2.359q.162-.855.386-1.729t.428-1.769c.082-.353.143-.657.182-.916s.075-.481.1-.671a13.923,13.923,0,0,1,.407-2.136,13.814,13.814,0,0,0,.407-2.176,7.338,7.338,0,0,1,.285-1.342,10.334,10.334,0,0,0,.325-1.383l.407-2.889q.122-.855.2-1.748c.054-.6.122-1.18.2-1.748a1.95,1.95,0,0,0,.021-.468c-.014-.149-.035-.29-.061-.428q-.284-1.259.773-1.465a14.486,14.486,0,0,1,1.505,0q1.1,0,1.423,1.423a18.648,18.648,0,0,1,.306,1.851c.068.61.143,1.215.224,1.811q.122,1.22.285,2.421t.285,2.421q.122,1.181.243,2.36a22.836,22.836,0,0,1,.122,2.359,2.079,2.079,0,0,0,.04.713,6.219,6.219,0,0,1,.122.713q.081,1.3.182,2.583t.264,2.543q.122,1.1.306,2.2t.346,2.2l.407,2.889q.081.529.163,1.038t.2,1a1.37,1.37,0,0,1-.488,1.627.978.978,0,0,1-1.138,0Zm-4.637-36.164a3.6,3.6,0,0,0,1.3.163.941.941,0,0,0,.285-.04l.9-.243a.79.79,0,0,0,.488-.264,1.433,1.433,0,0,1,.732-.346,1.329,1.329,0,0,1,.773.061,3.425,3.425,0,0,1,.652.386,1.2,1.2,0,0,1,.528,1.058q.081.774-1.22-.163c-.136-.026-.25-.054-.346-.082a1.087,1.087,0,0,0-.367-.021,1.638,1.638,0,0,0-.549.182c-.217.109-.5.257-.853.447a1.63,1.63,0,0,1-.488.163,4.384,4.384,0,0,0-.447.021c-.136.014-.271.035-.407.061a.533.533,0,0,0-.122.021.547.547,0,0,1-.122.021l-.834-.163a1.8,1.8,0,0,1-.753-.325,1.239,1.239,0,0,1-.65-1.1C624.934,133.267,625.436,133.321,626.385,133.891ZM628.54,146.3a.035.035,0,0,1-.04-.04l-2.6,12.815c.542-.026,1.05-.061,1.526-.1s.956-.089,1.444-.143a.724.724,0,0,0,.773-.813c0-.136-.007-.311-.021-.528s-.035-.475-.061-.773q-.122-1.3-.224-2.644t-.182-2.685q-.123-1.22-.243-2.5t-.2-2.583l-.165,0Z" transform="translate(-562.637 -133.132)"/><path class="a" d="M699.027,194.3a2.058,2.058,0,0,1-1.83-.9q-.571-.691-1.1-1.4a3.489,3.489,0,0,1-.65-1.688q0,.042-.2-.773-.245-.61-.428-1.18a4.26,4.26,0,0,1-.182-1.3,8.175,8.175,0,0,0-.243-1.566q-.2-.793-.367-1.566a1.681,1.681,0,0,1-.082-.732,6.883,6.883,0,0,0,.04-.732q-.081-1.3-.143-2.44t-.061-2.157q0-1.546.143-3.174t.428-3.335v-.671a3.216,3.216,0,0,1,.082-.713,11.768,11.768,0,0,1,1.017-3.905,3.27,3.27,0,0,0,.325-1.058,1.023,1.023,0,0,1,.773-.813,3.4,3.4,0,0,1,.853-.04,1.039,1.039,0,0,0,.671.021l.671-.224q.407-.123.855-.224a2.677,2.677,0,0,1,.853-.061,4.805,4.805,0,0,1,1.912.773,4.445,4.445,0,0,1,.65.834c.189.313.393.617.61.916a2.954,2.954,0,0,1,.224.346,2.956,2.956,0,0,0,.224.346,5.806,5.806,0,0,1,1.138,2.767q.162,1.343.325,2.725a23.486,23.486,0,0,1,.163,2.725q-.042,1.181-.182,2.339t-.264,2.339c-.028.217-.061.428-.1.631a1.567,1.567,0,0,0-.021.549,3.591,3.591,0,0,1-.04,1.423,12.087,12.087,0,0,0-.243,1.383q-.122.652-.182,1.3a12.448,12.448,0,0,1-.182,1.262q-.326,1.423-.671,2.664t-.753,2.3a4.665,4.665,0,0,1-.589,1.017c-.231.3-.454.61-.671.935A3.016,3.016,0,0,1,699.027,194.3Zm-.325-28.721q-.245.529-.528,1.017a3.741,3.741,0,0,0-.407.977,9.746,9.746,0,0,0-.346,1.241c-.1.447-.2.942-.306,1.484q-.2.813-.306,1.505c-.068.462-.116.881-.143,1.262a39.967,39.967,0,0,0-.243,4.434,33.185,33.185,0,0,0,.243,5.451q.122.936.306,1.851t.346,1.811a13.976,13.976,0,0,0,.488,2.279,12.652,12.652,0,0,0,.773,1.952c.054.109.115.224.182.346s.156.264.264.428q.407.407.813-.082c-.028.028.04-.082.2-.325a11.593,11.593,0,0,0,1.342-2.989,24.524,24.524,0,0,0,.692-3.274q.162-1.178.285-2.379t.325-2.421q.245-1.708.346-3.438a28.342,28.342,0,0,0-.021-3.56q-.122-.975-.2-1.994a7.336,7.336,0,0,0-.447-1.994A5.275,5.275,0,0,0,698.7,165.577Z" transform="translate(-622.221 -158.35)"/><path class="a" d="M771.565,185.534q.039-.61.838-.853c.158-.026.3-.047.419-.061a.474.474,0,0,1,.259.021q1.413,0,1.086,1.545-.122.529-.264,1.038a9.224,9.224,0,0,0-.224,1,3.457,3.457,0,0,0,.866,2.847.616.616,0,0,0,.535.285,1.278,1.278,0,0,0,1.2-.325,1.494,1.494,0,0,0,.577-1.18,9.412,9.412,0,0,0-.407-2.889q-.407-1.465-.935-2.889t-1.058-2.889q-.407-1.1-.813-2.157t-.853-2.155a7.932,7.932,0,0,1-.631-2.258q-.143-1.16-.224-2.379-.081-.488-.163-1.038c-.054-.367-.1-.739-.122-1.119a6.874,6.874,0,0,1,.1-2.176c.149-.718.29-1.444.428-2.176a1.579,1.579,0,0,1,.9-1.262,4.445,4.445,0,0,0,.488-.285l.488-.325a2.473,2.473,0,0,1,3.254,0,9.484,9.484,0,0,1,.977,1.262,5.375,5.375,0,0,1,.285.692,2.459,2.459,0,0,0,.325.652,11.346,11.346,0,0,1,.692,2.725c.054.488.087.97.1,1.444a4.847,4.847,0,0,1-.182,1.444,1.4,1.4,0,0,1-.9,1.058,1.21,1.21,0,0,1-1.262-.407.776.776,0,0,1-.2-.935,9.328,9.328,0,0,0,.122-2.889,4.417,4.417,0,0,0-.428-1.484q-.347-.712-.631-1.444a.483.483,0,0,0-.61-.2,1.934,1.934,0,0,0-1.138,1.465,8.61,8.61,0,0,0-.2,3.3q.162,1.423.306,2.828a9.719,9.719,0,0,0,.671,2.7q.407,1.139.853,2.258t.935,2.218q.081.245.224.61c.094.243.21.528.346.853q.365,1.139.773,2.258t.773,2.258a12.762,12.762,0,0,1,.367,1.708c.082.57.176,1.138.285,1.708a1.66,1.66,0,0,1-.021.224c-.014.1-.035.21-.061.346-.109.381-.189.692-.243.935a2.38,2.38,0,0,1-.163.528,1.706,1.706,0,0,1-.61.813,6.272,6.272,0,0,1-3.457,1.22,2.379,2.379,0,0,1-.813-.163,4.558,4.558,0,0,1-3.254-4.6v-.692h-.122Z" transform="translate(-686.053 -158.007)"/></g><g transform="translate(20.987 5.671)"><path class="b" d="M134.549,63.631a.65.65,0,0,1-.16-.019.577.577,0,0,1-.372-.273.63.63,0,0,1-.056-.49,1.56,1.56,0,0,1,.527-.671c-.106-.464.443-.906.855-1.237.238-.191.534-.414.89-.671a.735.735,0,0,1-.236-.012.6.6,0,0,1-.386-.283c-.316-.549.139-1.13,1.947-2.489,1.217-.914,2.915-2.067,4.557-3.181q.214-.143.438-.3-.532.274-1.112.572c-4,2.647-5.438,3.467-6.085,3.316a.616.616,0,0,1-.4-.294.5.5,0,0,1-.054-.136c-.149-.4.254-.723.645-1.039.322-.261.794-.612,1.441-1.076q.305-.219.647-.459c-2.1,1.274-2.786,1.557-3.165,1.465a.564.564,0,0,1-.36-.266c-.191-.33-.073-.626.518-1.126a1.56,1.56,0,0,1-.9.188.578.578,0,0,1-.372-.275c-.388-.673.323-1.34,5.852-5.508,1.248-.94,2.837-2.138,4.081-3.141-1.324.806-2.969,1.846-4.43,2.769-7.3,4.613-9.017,5.576-9.648,5.419a.564.564,0,0,1-.36-.266.495.495,0,0,1,.582-.718c.94-.247,5.711-3.259,8.9-5.271,6.373-4.025,7.07-4.382,7.524-4.27a.529.529,0,0,1,.335.25c.419.725-.476,1.569-6.386,6.021-1.283.966-2.836,2.138-3.978,3.062,1.688-.982,4.093-2.524,5.908-3.686,5.209-3.339,5.746-3.608,6.172-3.506a.527.527,0,0,1,.337.25c.273.473-.228.874-.593,1.168-.127.1-.276.217-.452.346a1.379,1.379,0,0,1,.886-.226.543.543,0,0,1,.344.255c.254.441-.181.793-.6,1.133-.323.261-.8.615-1.448,1.079l-.5.355c2.129-1.271,2.868-1.576,3.236-1.484a.559.559,0,0,1,.355.262.628.628,0,0,1,.054.5.8.8,0,0,1-.129.245c-.348.773-2.047,2.04-6.718,5.209-1.533,1.039-3.412,2.315-4.694,3.285,1.658-.963,4.067-2.531,5.876-3.706,5.134-3.337,6.127-3.9,6.634-3.782a.547.547,0,0,1,.351.259c.266.462-.216.831-.6,1.128-.123.094-.269.2-.438.322a1.822,1.822,0,0,1,1.048-.221.627.627,0,0,1,.4.292.3.3,0,0,1,.017.033.683.683,0,0,1,.176.017.614.614,0,0,1,.4.292.5.5,0,0,1-.659.687,2.323,2.323,0,0,0-.485.176,41.086,41.086,0,0,1-5.112,3.05c-1.038.667-2.091,1.357-3.043,1.981C136.6,62.828,135.194,63.631,134.549,63.631Z" transform="translate(-128.776 -43.876)"/></g><path class="b" d="M30.639,77.278a.486.486,0,0,1-.129-.017.5.5,0,0,1-.315-.236c-.243-.422-.057-.744,1.839-2.677-1.992,1.243-2.113,1.265-2.381,1.2a.51.51,0,0,1-.32-.24.59.59,0,0,1-.056-.123c-.349.179-.471.179-.615.144a.517.517,0,0,1-.325-.242c-.266-.461.082-.841,1.606-2.119.959-.8,2.284-1.853,3.565-2.866.862-.681,1.858-1.47,2.739-2.186-1.126.7-2.4,1.516-3.431,2.18C28.6,72.81,28.2,73.009,27.8,72.914a.531.531,0,0,1-.335-.249c-.294-.509.1-.977,1.987-2.383,1.222-.907,2.9-2.061,4.667-3.283,1.981-1.366,4.031-2.777,5.638-3.978.9-.669,1.5-1.161,1.914-1.521-1.576.883-4.307,2.711-6.455,4.149-5.777,3.867-8.405,5.539-9.318,5.327a.662.662,0,0,1-.431-.311c-.207-.358-.123-.747.747-1.509-.066.026-.13.05-.191.071-.921.481-1.274.561-1.512.5a.548.548,0,0,1-.349-.259A.6.6,0,0,1,24.111,69c.064-.219.308-.48.819-.841.733-1.2,3.832-3.32,11.958-8.43,3.021-1.9,6.6-4.152,8.3-5.438-.7.339-1.79.932-3.485,1.955-2.463,1.49-5.484,3.454-8.4,5.351-7.644,4.967-9.816,6.287-10.54,6.113a.577.577,0,0,1-.374-.275c-.3-.52.315-.989.907-1.444.53-.407,1.317-.954,2.405-1.674,2.021-1.337,4.788-3.075,7.719-4.915,3.464-2.176,7.046-4.425,9.874-6.311l.368-.247c-1.293.711-2.757,1.5-4.309,2.326-.932.6-1.9,1.234-2.882,1.875C33.19,59.183,29.8,61.394,27.1,63.028c-4.331,2.621-5.183,2.725-5.64,2.616a.687.687,0,0,1-.445-.323.592.592,0,0,1-.078-.24s0,0,0-.007c-.315-.546.318-1.088,1.244-1.8.65-.5,1.564-1.135,2.788-1.947-2.485,1.472-3.977,2.12-4.674,1.959a.764.764,0,0,1-.509-.365c-.309-.537.3-1.085,1.013-1.644.624-.492,1.557-1.147,2.852-2,2.405-1.583,5.734-3.638,9.257-5.812,4.408-2.72,8.965-5.532,12.547-7.927,4.456-2.979,5.654-4.178,5.968-4.637-.563.087-2.232.68-7.123,3.624-3.885,2.339-8.744,5.51-13.03,8.306C20.657,59.759,18.958,60.7,18.254,60.53a.577.577,0,0,1-.374-.275c-.262-.455.054-.935.8-1.573a2.071,2.071,0,0,1-1.116.144.742.742,0,0,1-.483-.348c-.32-.553.32-1.078,1.189-1.705q.342-.248.794-.549c-1.427.7-1.886.721-2.178.652a.686.686,0,0,1-.441-.32.751.751,0,0,1-.064-.587,1.9,1.9,0,0,1,.488-.728,1.51,1.51,0,0,1-.638.026.748.748,0,0,1-.494-.355.625.625,0,0,1-.056-.488.961.961,0,0,1,.21-.375,1.326,1.326,0,0,1-.714.059.66.66,0,0,1-.426-.309c-.176-.3-.07-.6.3-.968a1.72,1.72,0,0,1-.6-.012.882.882,0,0,1-.586-.417.59.59,0,0,1-.054-.448A.764.764,0,0,1,14,51.6l-.049-.01a.582.582,0,0,1-.377-.276.416.416,0,0,1-.035-.075,1.174,1.174,0,0,1-.468-.01.686.686,0,0,1-.44-.32c-.488-.846.765-1.834,8.944-7.041,1.456-.928,3.137-2,4.625-2.982-1.144.72-2.369,1.505-3.5,2.228-7.274,4.66-9.664,6.08-10.43,5.894a.594.594,0,0,1-.381-.28c-.29-.5.108-.937,2.372-2.574,1.427-1.032,3.328-2.329,5.339-3.7,2.067-1.411,4.613-3.149,6.307-4.4-1.851,1.085-4.493,2.833-6.483,4.15-5.539,3.664-7.133,4.635-7.786,4.481a.59.59,0,0,1-.379-.276c-.294-.509.3-.987.687-1.3.021-.017.042-.033.064-.05a.9.9,0,0,1-.474.043.552.552,0,0,1-.358-.264c-.181-.313-.076-.6.412-1.036a1.067,1.067,0,0,1-.457.017.659.659,0,0,1-.431-.311c-.193-.335-.122-.683.49-1.25-.6.335-.772.353-.947.311a.516.516,0,0,1-.33-.245c-.3-.525.141-1.043,2.162-2.518,1.326-.968,3.115-2.176,5.009-3.455.633-.428,1.333-.9,2.047-1.389-6.459,4.149-8.98,5.6-9.823,5.4a.629.629,0,0,1-.4-.3c-.492-.852.773-2.146,6.652-5.937-4.658,2.664-5.922,2.923-6.5,2.784a.764.764,0,0,1-.5-.358c-.3-.528.231-1.083,1.4-1.983.857-.662,2.119-1.543,3.858-2.694,3.214-2.126,7.578-4.851,11.8-7.488,2.459-1.535,5.141-3.21,7.564-4.754-1.333.728-2.875,1.556-4.649,2.5-1.257.78-2.534,1.576-3.8,2.364C21,26.828,17.127,29.238,14.2,30.982c-5.035,3-5.4,2.908-5.725,2.826a.574.574,0,0,1-.36-.266A.683.683,0,0,1,8.058,33a.9.9,0,0,1,.094-.209c-.214-.551.372-1.158,1.45-1.987-.508.231-.633.2-.768.167a.534.534,0,0,1-.341-.254.552.552,0,0,1-.05-.433.563.563,0,0,1,.036-.092.65.65,0,0,1-.083-.109.683.683,0,0,1-.059-.539c.061-.217.207-.49.817-1-.009-.014-.017-.026-.026-.042a.769.769,0,0,1-.063-.615,1.243,1.243,0,0,1,.186-.358.573.573,0,0,1-.014-.355c.057-.205.289-.461.82-.848a.64.64,0,0,1-.242-.24.623.623,0,0,1-.056-.478c.089-.316.506-.723,1.47-1.37a.614.614,0,0,1-.085-.115c-.33-.572.395-1.14.874-1.516.156-.123.335-.255.537-.4a.65.65,0,0,1-.163-.188c-.292-.506.139-1.06,2-2.574.886-.72,2-1.564,3.089-2.386-.023,0-.045-.007-.068-.012a.534.534,0,0,1-.339-.25.5.5,0,0,1,.478-.74c.4-.163,1.684-1,2.551-1.563,2.206-1.432,2.4-1.516,2.7-1.443a.52.52,0,0,1,.328.243c.275.474-.186.838-1.192,1.63-.7.549-1.67,1.277-2.7,2.049-1.521,1.138-3.775,2.826-5.037,3.912.436-.229,1.029-.567,1.832-1.064,1.571-.973,3.507-2.275,5.379-3.533,5.461-3.672,7.157-4.715,7.87-4.55a.614.614,0,0,1,.4.29c.184.32.007.612-.245.853,2.52-1.566,2.913-1.7,3.221-1.629a.523.523,0,0,1,.332.247.69.69,0,0,1,.089.273,1.175,1.175,0,0,1,.469,0,.7.7,0,0,1,.462.334c.007.01.012.023.019.035a3.062,3.062,0,0,1,1.7-.421.728.728,0,0,1,.474.341.666.666,0,0,1,.076.193.684.684,0,0,1,.125.016.572.572,0,0,1,.36.264.6.6,0,0,1,.08.276,1.955,1.955,0,0,1,1.1-.276.579.579,0,0,1,.254.136,1.211,1.211,0,0,1,.546-.005.679.679,0,0,1,.436.318c.21.365-.023.706-.4,1.031a2.85,2.85,0,0,1,1.5-.287.764.764,0,0,1,.368.2,1.1,1.1,0,0,1,.753-.1.581.581,0,0,1,.367.271c.315.544-.33,1.1-1.276,1.818-.77.587-1.908,1.377-3.481,2.412-2.911,1.917-6.78,4.333-10.877,6.891-3.973,2.482-8.082,5.047-11.219,7.105a55.754,55.754,0,0,0-4.945,3.492,46.584,46.584,0,0,0,7.451-3.942c4.274-2.557,9.512-5.927,14.136-8.9,9.947-6.4,11.669-7.418,12.295-7.267a.548.548,0,0,1,.348.257c.328.57-.236,1.194-1.253,2.016-.806.652-2.011,1.5-3.683,2.6-3.094,2.03-7.234,4.547-11.617,7.211-4.3,2.616-8.755,5.32-12.128,7.526a41.363,41.363,0,0,0-5.216,3.784c.568-.264,1.523-.768,3.118-1.728,2.007-1.208,4.409-2.757,6.526-4.123,5.065-3.268,5.292-3.353,5.652-3.268a.5.5,0,0,1,.327.243c.375.65-.264,1.39-4.258,4.18,2.381-1.432,3.674-2.02,4.244-1.884a.663.663,0,0,1,.426.309c.205.356.082.7-.579,1.248a.9.9,0,0,1,.269.012.659.659,0,0,1,.431.311c.2.342.083.676-.56,1.234a.833.833,0,0,1,.379-.01.578.578,0,0,1,.368.271.542.542,0,0,1-.073.659,2.868,2.868,0,0,1,1.637-.483.647.647,0,0,1,.417.3c.287.5-.269.977-.718,1.363-.426.365-1.052.848-1.917,1.477-1.589,1.154-3.747,2.628-5.833,4.053-1.453.992-3.069,2.1-4.423,3.05,1.988-1.2,4.481-2.793,6.427-4.039,6.685-4.281,7.959-5.009,8.525-4.872a.552.552,0,0,1,.353.261c.488.845-.765,1.832-8.939,7.037-2.795,1.78-6.417,4.086-7.912,5.3.2-.082.438-.188.725-.323,1.185-.751,3.314-1.938,7.067-3.964,2.438-1.469,5.165-3.167,7.972-4.931,4.27-2.784,8.817-5.725,12.608-8.009.718-.433,1.378-.824,1.988-1.178.607-.374,1.187-.728,1.736-1.06,5.021-3.035,5.416-2.937,5.732-2.859a.575.575,0,0,1,.367.271.84.84,0,0,1,.068.667,1.056,1.056,0,0,1-.038.111.723.723,0,0,1,.075.109.6.6,0,0,1,.056.464.926.926,0,0,1-.189.346.66.66,0,0,1,.066.01.552.552,0,0,1,.358.264c.195.335.054.666-.408,1.1A1.594,1.594,0,0,1,53.115,31a.769.769,0,0,1,.5.36.9.9,0,0,1,.073.718,3.38,3.38,0,0,1-1.015,1.331.763.763,0,0,1,.092.125.746.746,0,0,1,.064.586,2.029,2.029,0,0,1-.542.784,1.406,1.406,0,0,1,.7-.036.711.711,0,0,1,.457.33c.348.6-.242,1.288-1.352,2.174a1.434,1.434,0,0,1,.838-.118.625.625,0,0,1,.407.3c.32.554-.323,1.081-1.269,1.762q-.4.292-.951.657a1.713,1.713,0,0,1,.761-.024.8.8,0,0,1,.527.377c.534.925-.947,2.36-5.873,5.689-3.666,2.477-8.47,5.442-13.115,8.308-3.281,2.025-6.382,3.938-8.727,5.466-1.809,1.178-2.81,1.9-3.365,2.339a32.227,32.227,0,0,0,4.416-2.418c2.79-1.721,6.325-4.091,9.742-6.386,3.318-2.226,6.751-4.529,9.429-6.184,4.057-2.508,5.112-2.737,5.649-2.614a.747.747,0,0,1,.49.351c.308.534-.3,1.058-1.2,1.743-.723.549-1.788,1.284-3.259,2.247-2.72,1.782-6.474,4.112-10.105,6.365-1.258.78-2.616,1.623-3.978,2.473q1.721-.923,3.752-2,.631-.334,1.281-.681c8.883-5.737,10.35-6.523,11-6.365a.572.572,0,0,1,.311.189.608.608,0,0,1,.278.25c.342.593-.4,1.262-1.253,1.954-.78.631-1.929,1.456-3.513,2.524l-.181.122a4.516,4.516,0,0,1,2.414-.8.679.679,0,0,1,.436.316c.483.838-.777,1.8-9.624,7.364-2.558,1.609-5.2,3.268-7.338,4.708,1.013-.525,2.183-1.123,3.533-1.809l.043-.023.455-.287c7.752-4.867,9.326-5.76,9.91-5.614a.548.548,0,0,1,.348.257.573.573,0,0,1-.075.666,6.963,6.963,0,0,1-2.294,1.7l-.325.209a2.262,2.262,0,0,1,1.345-.375.616.616,0,0,1,.4.292c.488.846-.714,1.955-7.428,6.612,2.021-1.237,2.711-1.524,3.094-1.43a.573.573,0,0,1,.363.268c.268.466-.113.883-1.66,2.181-.992.833-2.353,1.91-3.669,2.951l-.69.546c1.742-1.078,2.1-1.191,2.4-1.118a.536.536,0,0,1,.342.254c.264.457-.137.732-.933,1.281l-.111.076a.3.3,0,0,1,.019.031c.219.379-.083.7-.542,1.191-.316.337-.751.775-1.21,1.239s-1.126,1.137-1.62,1.667l.031.047a.5.5,0,0,1-.181.678.559.559,0,0,1-.087.04c-.056.033-.158.1-.231.146C30.96,77.181,30.808,77.278,30.639,77.278Zm.311-.685a.49.49,0,0,0,.123.141A.507.507,0,0,1,30.95,76.593Zm0,0a0,0,0,0,0,0,0A0,0,0,0,0,30.948,76.592Zm5.89-13.216c-2.411,1.476-4.889,2.995-6.888,4.309-1.2.789-2,1.359-2.536,1.769,1.811-.989,4.962-3.1,7.249-4.628Q35.861,64.022,36.839,63.375Zm-8.548-9.783c-1.168.7-2.28,1.377-3.306,2.013-2.02,1.251-3.387,2.155-4.312,2.809C22.581,57.285,25.413,55.466,28.291,53.592Zm5.325-4.853-1.032.594c-3.747,2.16-7.286,4.2-9.975,5.829-1.936,1.173-3.076,1.922-3.745,2.4A49.568,49.568,0,0,0,24.58,54.44C27.25,52.829,30.4,50.818,33.616,48.739Zm15.639-2.906a37.874,37.874,0,0,0-3.876,2.18c-2.652,1.642-6.05,3.921-9.335,6.125q-2.341,1.569-4.3,2.87c1.383-.864,2.812-1.75,4.222-2.626C40.968,51.277,46.97,47.552,49.255,45.833Zm-16.3.687c-3.627,2.02-7.225,4.039-10.029,5.723a36.206,36.206,0,0,0-5.181,3.493,41.428,41.428,0,0,0,5.289-2.9C25.861,51.112,29.415,48.818,32.958,46.52Zm-6.794,2.418c-1.861,1.02-3.57,1.969-5.018,2.8-1.961,1.128-3.076,1.842-3.712,2.291a42.514,42.514,0,0,0,5.132-2.83C23.675,50.523,24.886,49.758,26.163,48.937Zm-7.317,2.421c-.468.3-.9.57-1.276.822.733-.4,1.707-.958,3-1.742C19.974,50.769,19.4,51.079,18.846,51.359ZM36.4,39.432c-1.211.687-2.437,1.378-3.652,2.065-6.883,3.888-15.26,8.621-17.476,10.293a12.928,12.928,0,0,0,2.317-.921c.264-.127.542-.264.836-.415.563-.356,1.2-.749,1.9-1.184,2.788-1.707,6.453-3.858,10.192-6.04C32.469,41.987,34.456,40.7,36.4,39.432Zm15.823-3.485a38.46,38.46,0,0,0-5.682,3.075c-3.334,2.025-7.59,4.787-11.7,7.458-1.973,1.281-3.978,2.583-5.889,3.806,1.02-.591,2.073-1.2,3.141-1.813,4.823-2.779,9.81-5.654,13.725-8.077A41.483,41.483,0,0,0,52.222,35.947Zm.438-3.982c-.567.1-2.2.732-6.91,3.579-3.813,2.306-8.584,5.412-13.2,8.416-1.194.777-2.369,1.542-3.511,2.282l1.509-.819c1.917-1.041,3.858-2.094,5.76-3.137,3.313-2.183,6.587-4.323,9.248-5.953a31.488,31.488,0,0,1,5.725-3.042A6.159,6.159,0,0,0,52.66,31.965ZM36.854,43.112l-1.038.685c3.784-2.1,7.573-4.227,10.493-5.981a49.972,49.972,0,0,0,4.59-3C48.056,36.841,43.188,39.63,36.854,43.112Zm13.068-3.544c-.633.362-1.4.819-2.343,1.4-.972.6-2.032,1.262-3.16,1.978C46.54,41.678,48.478,40.5,49.923,39.568Zm-4.83-7.129c-2.776,1.71-6.048,3.782-9.139,5.737l-.346.219c2.657-1.451,5.237-2.885,7.526-4.217a76.059,76.059,0,0,0,6.709-4.243A50.442,50.442,0,0,0,45.093,32.438ZM23.077,34.729c-.346.2-.735.429-1.177.7-.681.412-1.406.864-2.148,1.337C20.873,36.088,22.069,35.367,23.077,34.729Zm-1.712-10.18c-1.476.869-2.913,1.724-4.258,2.539q.972-.529,2.07-1.118C19.917,25.491,20.652,25.011,21.365,24.549Zm19.991-6.6c-2.272,1.364-5.805,3.638-9.264,5.861-1.137.732-2.312,1.486-3.5,2.247,3.572-2.173,6.905-4.211,9.566-5.939C39.578,19.2,40.608,18.489,41.356,17.946Zm-17.9-1.258c-.487.289-.987.584-1.495.883-2.657,1.568-6.269,3.7-8.332,5.092.707-.372,1.672-.916,2.989-1.705C18.685,19.717,21.135,18.165,23.452,16.688Zm1.493.907c-.6.4-1.21.8-1.82,1.21q.657-.37,1.3-.737.978-.649,1.86-1.231Q25.646,17.2,24.945,17.6Zm8.874-1.71c-.6.342-1.269.735-2.025,1.185-.393.235-.8.478-1.21.728.214-.122.426-.243.633-.363C32.247,16.844,33.1,16.33,33.82,15.885ZM17.929,16.3Zm0,0Zm15.4-2.68c-.066.059-.136.118-.21.181.391-.236.735-.44,1.038-.614C33.922,13.3,33.648,13.443,33.329,13.619Z" transform="translate(-8.028 -11.25)"/><g transform="translate(17.005 15.197)"><path class="c" d="M112.445,110.656a.573.573,0,0,1-.137-.021.507.507,0,0,1-.316-.236c-.289-.5.1-.9,2.014-2.5-.163.1-.323.2-.473.3-3.163,2-3.3,2.042-3.619,1.966a.518.518,0,0,1-.323-.242c-.236-.41.063-.751.961-1.674.579-.593,1.354-1.347,2.174-2.145.455-.443.994-.966,1.509-1.476-.259.165-.52.332-.766.492-4.329,2.776-5.306,3.313-5.807,3.191a.573.573,0,0,1-.287-.169.55.55,0,0,1-.448.064.53.53,0,0,1-.32-.24c-.245-.426.068-.777,1.1-1.755.662-.627,1.566-1.436,2.522-2.291.862-.772,1.948-1.743,2.838-2.579-.563.363-1.158.758-1.681,1.1-3.719,2.461-4.573,2.936-5.077,2.816a.574.574,0,0,1-.368-.269c-.195-.335.012-.608.426-1.151.262-.344.633-.808,1.025-1.3.421-.527,1.025-1.283,1.531-1.952-.916.574-1.017.619-1.253.56a.506.506,0,0,1-.313-.236.5.5,0,0,1,.323-.732c.167-.087.645-.386,1-.61,1.4-.876,1.512-.933,1.776-.867a.514.514,0,0,1,.316.238c.264.457.068.871-2.607,4.218-.1.125-.2.254-.308.384.916-.561,2.08-1.331,2.979-1.926,3.375-2.233,4-2.581,4.436-2.477a.536.536,0,0,1,.351.259c.255.443-.033.89-1.474,2.277-.9.869-2.1,1.943-3.262,2.981l-.645.577.08-.05c5.186-3.288,6.111-3.751,6.592-3.633a.544.544,0,0,1,.4.676.736.736,0,0,1-.209.328c.109.365-.207.766-1.189,1.782-.685.707-1.609,1.606-2.5,2.473l-.826.8c.139-.087.275-.174.408-.259,3.629-2.294,4.051-2.491,4.422-2.4a.52.52,0,0,1,.332.249c.282.488-.1.923-1.757,2.32a.55.55,0,0,1,.5.262.494.494,0,0,1-.181.676.474.474,0,0,1-.257.066c-.341.146-1.4.826-2.054,1.243C112.886,110.5,112.639,110.656,112.445,110.656Zm3.2-2.362Zm0,0Zm0,0Zm0,0Zm0,0Zm0,0Zm-7.564-8.019a.511.511,0,0,1,.139.153A.516.516,0,0,0,108.079,100.271Z" transform="translate(-105.865 -98.687)"/></g><g transform="translate(22.355 59.309)"><path class="a" d="M230.026,363.179a.69.69,0,0,1,0-1.38c.69,0,1.382-.016,2.053-.036a.69.69,0,0,1,.045,1.38c-.683.021-1.387.035-2.089.038Zm-3.452-.052h-.024c-.685-.024-1.385-.056-2.084-.094a.69.69,0,0,1,.075-1.378c.69.038,1.382.07,2.056.092a.69.69,0,0,1-.023,1.38Zm8.968-.182a.69.69,0,0,1-.057-1.378c.69-.059,1.375-.129,2.035-.209a.691.691,0,1,1,.165,1.371c-.678.082-1.38.155-2.086.214Zm-14.655-.167c-.019,0-.04,0-.059,0-.674-.057-1.371-.123-2.073-.195a.69.69,0,0,1,.139-1.373c.7.07,1.385.136,2.053.191a.69.69,0,0,1-.059,1.378Zm-5.494-.579a.7.7,0,0,1-.085-.005q-1.027-.128-2.063-.266a.691.691,0,1,1,.184-1.37q1.027.138,2.047.264a.691.691,0,0,1-.083,1.377Zm25.789-.03a.691.691,0,0,1-.132-1.37c.676-.132,1.345-.282,1.99-.441a.69.69,0,1,1,.332,1.34c-.666.165-1.357.318-2.054.455A.624.624,0,0,1,241.183,362.169Zm-31.264-.723a.7.7,0,0,1-.1-.007q-1.025-.154-2.053-.318a.691.691,0,0,1,.217-1.364q1.025.162,2.042.316a.69.69,0,0,1-.1,1.373Zm36.595-.707a.69.69,0,0,1-.228-1.342c.647-.226,1.283-.471,1.893-.728a.691.691,0,0,1,.539,1.272c-.636.269-1.3.525-1.974.76A.714.714,0,0,1,246.513,360.739Zm-42.226-.2a.659.659,0,0,1-.116-.01q-1.025-.175-2.049-.355a.691.691,0,0,1,.238-1.361q1.022.18,2.042.353a.692.692,0,0,1-.115,1.373Zm-66.95-.141a.69.69,0,0,1-.488-1.178,18.506,18.506,0,0,1,1.606-1.429.69.69,0,0,1,.857,1.083,16.848,16.848,0,0,0-1.486,1.323A.692.692,0,0,1,137.338,360.4Zm61.5-.82a.759.759,0,0,1-.125-.01q-1.019-.185-2.04-.374a.691.691,0,0,1,.25-1.359l2.037.374a.69.69,0,0,1-.122,1.37Zm-5.435-1a.627.627,0,0,1-.127-.012l-2.034-.381a.69.69,0,1,1,.252-1.357l2.034.381a.691.691,0,0,1-.125,1.37Zm58.138-.1a.691.691,0,0,1-.342-1.291c.587-.334,1.164-.69,1.715-1.062a.69.69,0,0,1,.77,1.145c-.581.391-1.187.766-1.806,1.116A.652.652,0,0,1,251.543,358.474Zm-63.734-.942a.639.639,0,0,1-.127-.012l-2.035-.374a.691.691,0,1,1,.247-1.359l2.04.374a.692.692,0,0,1-.125,1.371Zm-45.885-.471a.691.691,0,0,1-.32-1.3c.617-.322,1.269-.622,1.938-.9a.691.691,0,1,1,.521,1.279c-.629.257-1.243.541-1.82.841A.684.684,0,0,1,141.925,357.061Zm40.446-.511a.7.7,0,0,1-.12-.01q-1.022-.18-2.039-.351a.69.69,0,1,1,.231-1.361q1.019.172,2.046.353a.69.69,0,0,1-.118,1.37Zm-5.451-.909a.75.75,0,0,1-.108-.009q-1.027-.162-2.042-.313a.69.69,0,0,1,.2-1.366q1.022.151,2.054.315a.691.691,0,0,1-.106,1.373Zm79.239-.481a.691.691,0,0,1-.462-1.2c.327-.294.648-.6.958-.907a.691.691,0,0,1,.977.977c-.327.327-.666.648-1.01.958A.683.683,0,0,1,256.16,355.16Zm-109.082-.049a.691.691,0,0,1-.176-1.359c.662-.174,1.356-.332,2.063-.469a.691.691,0,1,1,.264,1.356c-.678.132-1.342.283-1.976.448A.6.6,0,0,1,147.078,355.111Zm24.2-.283a.764.764,0,0,1-.089-.005c-.7-.09-1.385-.174-2.047-.25a.69.69,0,0,1,.158-1.371c.669.076,1.364.162,2.067.252a.69.69,0,0,1-.089,1.375Zm-5.494-.6a.357.357,0,0,1-.061,0c-.692-.061-1.382-.115-2.053-.16a.69.69,0,1,1,.092-1.377c.678.045,1.378.1,2.079.162a.69.69,0,0,1-.057,1.378Zm-13.275-.08a.69.69,0,0,1-.071-1.377c.676-.071,1.38-.129,2.093-.174a.69.69,0,0,1,.085,1.378c-.693.043-1.378.1-2.035.169C152.56,354.146,152.535,354.148,152.511,354.148Zm7.76-.249h-.019c-.685-.019-1.366-.03-2.023-.03H158.2a.69.69,0,0,1,0-1.38h.028c.671,0,1.364.01,2.063.03a.69.69,0,0,1-.021,1.38Z" transform="translate(-136.647 -352.49)"/></g></svg>